<?xml version="1.0" encoding="UTF-8"?>
<svg width="15px" height="15px" viewBox="0 0 15 15" version="1.1" xmlns="http://www.w3.org/2000/svg" xmlns:xlink="http://www.w3.org/1999/xlink">
    <!-- Generator: Sketch 51.3 (57544) - http://www.bohemiancoding.com/sketch -->
    <title>Shape</title>
    <desc>Created with Sketch.</desc>
    <defs>
        <path d="M317.232812,21.2354202 L317.177733,26.5020036 C317.177733,26.5020036 317.088174,27.160025 316.520039,27.1745764 C315.951905,27.1891277 315.843306,26.497843 315.843306,26.497843 L315.793988,21.2354202 L310.558117,21.212654 C310.558117,21.212654 309.869379,21.1705487 309.87382,20.5283573 C309.878261,19.8861659 310.545964,19.870234 310.545964,19.870234 L315.793988,19.7965961 L315.849349,14.5528281 C315.849349,14.5528281 315.877474,13.8891045 316.508658,13.8794997 C317.139841,13.8698949 317.192954,14.5637964 317.192954,14.5637964 L317.232812,19.7965961 L322.46366,19.8345021 C322.46366,19.8345021 323.127825,19.873146 323.140394,20.5112355 C323.152962,21.149325 322.480549,21.1562011 322.480549,21.1562011 L317.232812,21.2354202 Z" id="path-1"></path>
    </defs>
    <g id="Page-1" stroke="none" stroke-width="1" fill="none" fill-rule="evenodd">
        <g id="2-Landing-V2" transform="translate(-1173.000000, -133.000000)">
            <g id="Group-2" transform="translate(154.000000, 114.000000)">
                <g id="Component/Card/Metric-with-Icon" transform="translate(710.000000, 6.000000)">
                    <mask id="mask-2" fill="white">
                        <use xlink:href="#path-1"></use>
                    </mask>
                    <use id="Shape" fill="#FFFFFF" fill-rule="nonzero" xlink:href="#path-1"></use>
                </g>
            </g>
        </g>
    </g>
</svg>