<?xml version="1.0" encoding="UTF-8"?>
<svg width="17px" height="12px" viewBox="0 0 17 12" version="1.1" xmlns="http://www.w3.org/2000/svg" xmlns:xlink="http://www.w3.org/1999/xlink">
    <!-- Generator: Sketch 51.3 (57544) - http://www.bohemiancoding.com/sketch -->
    <title>Icons / Transfer</title>
    <desc>Created with Sketch.</desc>
    <defs>
        <path d="M1.54336847,2.63469478 L1.54336847,5.40178965 C1.54336847,5.82797908 1.19787367,6.17347388 0.771684235,6.17347388 C0.3454948,6.17347388 0,5.82797908 0,5.40178965 L0,0.771684235 C-8.56741606e-17,0.3454948 0.3454948,0 0.771684235,0 L5.40178965,0 C5.82797908,0 6.17347388,0.3454948 6.17347388,0.771684235 C6.17347388,1.19787367 5.82797908,1.54336847 5.40178965,1.54336847 L2.63469478,1.54336847 L8.95663157,7.86530526 C9.25799301,8.1666667 9.25799301,8.65527013 8.95663157,8.95663157 C8.65527013,9.25799301 8.1666667,9.25799301 7.86530526,8.95663157 L1.54336847,2.63469478 Z M15.3561265,8.86301057 L15.3561265,6.09591571 C15.3561265,5.66972627 15.7016213,5.32423147 16.1278108,5.32423147 C16.5540002,5.32423147 16.899495,5.66972627 16.899495,6.09591571 L16.899495,10.7260211 C16.899495,11.1522106 16.5540002,11.4977054 16.1278108,11.4977054 L11.4977054,11.4977054 C11.0715159,11.4977054 10.7260211,11.1522106 10.7260211,10.7260211 C10.7260211,10.2998317 11.0715159,9.95433688 11.4977054,9.95433688 L14.2648002,9.95433688 L7.94286343,3.6324001 C7.64150199,3.33103866 7.64150199,2.84243522 7.94286343,2.54107378 C8.24422487,2.23971235 8.7328283,2.23971235 9.03418974,2.54107378 L15.3561265,8.86301057 Z" id="path-1"></path>
    </defs>
    <g id="Symbols" stroke="none" stroke-width="1" fill="none" fill-rule="evenodd">
        <g id="Component/Navigation/Top-Bar" transform="translate(-758.000000, -26.000000)">
            <g id="Icons-/-Transfer" transform="translate(758.000000, 26.000000)">
                <mask id="mask-2" fill="white">
                    <use xlink:href="#path-1"></use>
                </mask>
                <use id="Glyph" fill="#C0C3CC" xlink:href="#path-1"></use>
            </g>
        </g>
    </g>
</svg>