<?xml version="1.0" encoding="UTF-8"?>
<svg width="39px" height="39px" viewBox="0 0 39 39" version="1.1" xmlns="http://www.w3.org/2000/svg" xmlns:xlink="http://www.w3.org/1999/xlink">
    <!-- Generator: Sketch 51.3 (57544) - http://www.bohemiancoding.com/sketch -->
    <title>noun_Close_997408</title>
    <desc>Created with Sketch.</desc>
    <defs></defs>
    <g id="Page-1" stroke="none" stroke-width="1" fill="none" fill-rule="evenodd" opacity="0.195525">
        <g id="4.2---create-service-request" transform="translate(-1140.000000, -90.000000)" fill="#353847">
            <g id="noun_Close_997408" transform="translate(1140.000000, 90.000000)">
                <g id="Group" transform="translate(0.000000, 0.276389)">
                    <path d="M19.0666658,0.156944667 C8.54926713,0.156944667 -8.66666668e-07,8.701849 -8.66666668e-07,19.22362 C-8.66666668e-07,29.74127 8.5490158,38.2902867 19.0666658,38.2902867 C29.5884455,38.2902867 38.1333342,29.74101 38.1333342,19.22362 C38.1333342,8.70206567 29.5881985,0.156944667 19.0666658,0.156944667 Z M19.0666658,1.89028233 C28.6517998,1.89028233 36.4000009,9.638499 36.4000009,19.22362 C36.4000009,28.80423 28.6515528,36.5569533 19.0666658,36.5569533 C9.4863158,36.5569533 1.73333247,28.80397 1.73333247,19.22362 C1.73333247,9.63871567 9.4860688,1.89028233 19.0666658,1.89028233 Z" id="Shape"></path>
                    <path d="M12.4648325,11.8527457 C12.1274787,11.8855774 11.8402159,12.1120407 11.7295427,12.4324107 C11.6188694,12.7527807 11.7050949,13.1082672 11.9502491,13.342329 L17.8273325,19.23298 L11.9502491,25.11002 C11.6100219,25.4503194 11.6100487,26.0019855 11.950309,26.3422518 C12.2905694,26.6825181 12.8422354,26.6825546 13.1825408,26.3423333 L19.0731658,20.45173 L24.9502491,26.3423333 C25.2905545,26.6825546 25.8422206,26.6825181 26.1824809,26.3422518 C26.5227412,26.0019855 26.522768,25.4503194 26.1825408,25.11002 L20.2919158,19.23298 L26.1825408,13.342329 C26.4412299,13.0925342 26.5188059,12.7089472 26.3775125,12.3782606 C26.2362192,12.0475739 25.9054068,11.8384802 25.5460825,11.8527457 C25.3216422,11.8581142 25.1080407,11.9503591 24.9502491,12.110059 L19.0731658,17.9871423 L13.1825408,12.110059 C13.0181166,11.9437665 12.7934731,11.8509712 12.5596241,11.8527457 C12.5280506,11.8510166 12.496406,11.8510166 12.4648325,11.8527457 Z" id="Shape"></path>
                </g>
            </g>
        </g>
    </g>
</svg>