<?xml version="1.0" encoding="UTF-8"?>
<svg width="26px" height="26px" viewBox="0 0 26 26" version="1.1" xmlns="http://www.w3.org/2000/svg" xmlns:xlink="http://www.w3.org/1999/xlink">
    <!-- Generator: Sketch 51.3 (57544) - http://www.bohemiancoding.com/sketch -->
    <title>noun_Close_997408</title>
    <desc>Created with Sketch.</desc>
    <defs></defs>
    <g id="Page-1" stroke="none" stroke-width="1" fill="none" fill-rule="evenodd" opacity="0.280915179">
        <g id="2-Landing" transform="translate(-940.000000, -206.000000)" fill="#000000">
            <g id="Group-2" transform="translate(154.000000, 114.000000)">
                <g id="noun_Close_997408" transform="translate(786.000000, 92.000000)">
                    <g id="Group" transform="translate(0.000000, 0.184259)">
                        <path d="M12.7111105,0.104629778 C5.69951142,0.104629778 -5.77777778e-07,5.80123267 -5.77777778e-07,12.8157467 C-5.77777778e-07,19.8275133 5.69934387,25.5268578 12.7111105,25.5268578 C19.7256303,25.5268578 25.4222228,19.82734 25.4222228,12.8157467 C25.4222228,5.80137711 19.7254656,0.104629778 12.7111105,0.104629778 Z M12.7111105,1.26018822 C19.1011999,1.26018822 24.2666672,6.425666 24.2666672,12.8157467 C24.2666672,19.20282 19.1010352,24.3713022 12.7111105,24.3713022 C6.32421053,24.3713022 1.15555498,19.2026467 1.15555498,12.8157467 C1.15555498,6.42581044 6.32404587,1.26018822 12.7111105,1.26018822 Z" id="Shape"></path>
                        <path d="M8.30988831,7.90183044 C8.08498579,7.92371827 7.89347729,8.07469382 7.81969511,8.2882738 C7.74591294,8.50185379 7.80339662,8.73884482 7.96683276,8.894886 L11.8848883,12.8219867 L7.96683276,16.7400133 C7.7400146,16.9668796 7.74003248,17.334657 7.96687269,17.5615012 C8.19371291,17.7883454 8.56149029,17.7883697 8.78836053,17.5615556 L12.7154439,13.6344867 L16.6334994,17.5615556 C16.8603697,17.7883697 17.228147,17.7883454 17.4549873,17.5615012 C17.6818275,17.334657 17.6818454,16.9668796 17.4550272,16.7400133 L13.5279439,12.8219867 L17.4550272,8.894886 C17.6274866,8.72835613 17.679204,8.4726315 17.5850084,8.25217372 C17.4908128,8.03171594 17.2702712,7.89232012 17.0307216,7.90183044 C16.8810948,7.9054095 16.7386938,7.96690604 16.6334994,8.07337267 L12.7154439,11.9914282 L8.78836053,8.07337267 C8.67874441,7.962511 8.52898209,7.90064744 8.37308276,7.90183044 C8.35203371,7.90067772 8.33093736,7.90067772 8.30988831,7.90183044 Z" id="Shape"></path>
                    </g>
                </g>
            </g>
        </g>
    </g>
</svg>