<?xml version="1.0" encoding="UTF-8"?>
<svg width="20px" height="20px" viewBox="0 0 20 20" version="1.1" xmlns="http://www.w3.org/2000/svg" xmlns:xlink="http://www.w3.org/1999/xlink">
    <!-- Generator: Sketch 51.3 (57544) - http://www.bohemiancoding.com/sketch -->
    <title>Group</title>
    <desc>Created with Sketch.</desc>
    <defs></defs>
    <g id="Page-1" stroke="none" stroke-width="1" fill="none" fill-rule="evenodd" opacity="0.470703125">
        <g id="3.4--uploading-status" transform="translate(-1052.000000, -701.000000)" fill="#000000">
            <g id="Group-2" transform="translate(377.000000, 688.000000)">
                <g id="Group" transform="translate(675.000000, 13.141738)">
                    <path d="M9.77777733,0.0804844444 C4.38423956,0.0804844444 -4.44444445e-07,4.46248667 -4.44444445e-07,9.85826667 C-4.44444445e-07,15.2519333 4.38411067,19.6360444 9.77777733,19.6360444 C15.1735618,19.6360444 19.555556,15.2518 19.555556,9.85826667 C19.555556,4.46259778 15.1734351,0.0804844444 9.77777733,0.0804844444 Z M9.77777733,0.969375556 C14.6932307,0.969375556 18.6666671,4.94282 18.6666671,9.85826667 C18.6666671,14.7714 14.693104,18.7471556 9.77777733,18.7471556 C4.86477733,18.7471556 0.888888444,14.7712667 0.888888444,9.85826667 C0.888888444,4.94293111 4.86465067,0.969375556 9.77777733,0.969375556 Z" id="Shape"></path>
                    <path d="M6.39222178,6.07833111 C6.21921984,6.0951679 6.07190561,6.21130294 6.01515009,6.37559523 C5.95839457,6.53988753 6.00261278,6.72218833 6.12833289,6.84222 L9.14222178,9.86306667 L6.12833289,12.8769333 C5.95385738,13.0514458 5.95387114,13.3343515 6.12836361,13.5088471 C6.30285608,13.6833426 6.58576176,13.6833613 6.76027733,13.5088889 L9.78111067,10.4880667 L12.7949996,13.5088889 C12.9695151,13.6833613 13.2524208,13.6833426 13.4269133,13.5088471 C13.6014058,13.3343515 13.6014195,13.0514458 13.426944,12.8769333 L10.4061107,9.86306667 L13.426944,6.84222 C13.5596051,6.7141201 13.5993877,6.51740885 13.5269295,6.34782594 C13.4544714,6.17824303 13.284824,6.07101548 13.1005551,6.07833111 C12.9854576,6.08108423 12.8759183,6.12838926 12.7949996,6.21028667 L9.78111067,9.22417556 L6.76027733,6.21028667 C6.67595724,6.12500846 6.56075546,6.07742111 6.44083289,6.07833111 C6.42464132,6.0774444 6.40841335,6.0774444 6.39222178,6.07833111 Z" id="Shape"></path>
                </g>
            </g>
        </g>
    </g>
</svg>