<?xml version="1.0" encoding="UTF-8"?>
<svg width="17px" height="17px" viewBox="0 0 17 17" version="1.1" xmlns="http://www.w3.org/2000/svg" xmlns:xlink="http://www.w3.org/1999/xlink">
    <!-- Generator: Sketch 51.3 (57544) - http://www.bohemiancoding.com/sketch -->
    <title>Icons / Discover</title>
    <desc>Created with Sketch.</desc>
    <defs>
        <path d="M8.5,17 C3.80557963,17 0,13.1944204 0,8.5 C0,3.80557963 3.80557963,0 8.5,0 C13.1944204,0 17,3.80557963 17,8.5 C17,13.1944204 13.1944204,17 8.5,17 Z M8.84491777,3.01386502 C8.8075557,2.93850745 8.74662281,2.8774006 8.67137207,2.83982384 C8.48046744,2.74449484 8.24842924,2.8219742 8.15310024,3.01287883 L5.40909091,8.50799681 L8.15576145,13.9942317 C8.19295353,14.0685196 8.25310032,14.1288409 8.32728023,14.1662479 C8.51780867,14.2623266 8.75014963,14.1857599 8.8462283,13.9952315 L11.5909091,8.55240264 L8.84491777,3.01386502 Z M8.5,9.27272727 C8.07323451,9.27272727 7.72727273,8.92676549 7.72727273,8.5 C7.72727273,8.07323451 8.07323451,7.72727273 8.5,7.72727273 C8.92676549,7.72727273 9.27272727,8.07323451 9.27272727,8.5 C9.27272727,8.92676549 8.92676549,9.27272727 8.5,9.27272727 Z" id="path-1"></path>
    </defs>
    <g id="Symbols" stroke="none" stroke-width="1" fill="none" fill-rule="evenodd">
        <g id="Component/Navigation/Top-Bar" transform="translate(-888.000000, -24.000000)">
            <g id="Icons-/-Discover" transform="translate(888.000000, 24.000000)">
                <mask id="mask-2" fill="white">
                    <use xlink:href="#path-1"></use>
                </mask>
                <use id="Glyph" fill="#C0C3CC" xlink:href="#path-1"></use>
            </g>
        </g>
    </g>
</svg>