<?xml version="1.0" encoding="UTF-8"?>
<svg width="37px" height="37px" viewBox="0 0 37 37" version="1.1" xmlns="http://www.w3.org/2000/svg" xmlns:xlink="http://www.w3.org/1999/xlink">
    <!-- Generator: Sketch 51.3 (57544) - http://www.bohemiancoding.com/sketch -->
    <title>Group 3</title>
    <desc>Created with Sketch.</desc>
    <defs></defs>
    <g id="Page-1" stroke="none" stroke-width="1" fill="none" fill-rule="evenodd">
        <g id="5.2---datasourcesV2" transform="translate(-559.000000, -286.000000)">
            <g id="Group-3-Copy-10" transform="translate(446.000000, 229.000000)">
                <g id="Group-3" transform="translate(113.000000, 57.000000)">
                    <circle id="Oval-4" fill="#F1F2F7" cx="18.5" cy="18.5" r="18.5"></circle>
                    <g id="noun_power-source_1798187" transform="translate(9.000000, 9.000000)" fill="#6885EF" fill-rule="nonzero">
                        <path d="M18.4066443,16.5770901 C18.3912953,16.5516332 18.3755719,16.5265508 18.3576024,16.502217 C18.337761,16.4752627 18.3164222,16.4498058 18.2935859,16.4247233 C18.2860986,16.4167369 16.7328561,14.8800912 13.6338584,11.8147864 C15.0014156,9.92835864 15.1754955,7.6731808 13.935597,6.48157538 L8.4092133,1.17269808 L7.40553936,2.21755222 L5.39407348,0.285077451 C4.98713817,-0.105385776 4.29456197,-0.09340608 3.90409875,0.312780499 C3.70867995,0.515686606 3.60423197,0.783357946 3.60984745,1.06562954 C3.61546294,1.34752677 3.73039315,1.61033136 3.93367362,1.80537579 L5.94513951,3.73785055 L3.79515838,5.97618194 L1.78406686,4.04333281 C1.37713155,3.65249522 0.68418099,3.66484928 0.294092128,4.07066149 C0.0990476972,4.27394197 -0.00540028022,4.54123894 0.000215202439,4.82351053 C0.0058306851,5.10540776 0.120760897,5.36858672 0.324041369,5.56325678 L2.33550726,7.49573155 L1.44339425,8.42415801 L6.96977791,13.733784 C7.48453049,14.2283209 8.18721455,14.489628 9.00071081,14.489628 C10.1050891,14.489628 11.3049305,14.0025785 12.3400512,13.1681178 L17,18 C17.9477459,17.0683646 18.4166273,16.5940613 18.4066443,16.5770901 Z" id="Shape"></path>
                    </g>
                </g>
            </g>
        </g>
    </g>
</svg>