<?xml version="1.0" encoding="UTF-8"?>
<svg width="40px" height="40px" viewBox="0 0 40 40" version="1.1" xmlns="http://www.w3.org/2000/svg" xmlns:xlink="http://www.w3.org/1999/xlink">
    <!-- Generator: Sketch 51.3 (57544) - http://www.bohemiancoding.com/sketch -->
    <title>Group 5</title>
    <desc>Created with Sketch.</desc>
    <defs>
        <path d="M26.2831957,15.3934927 C26.0217897,15.1316169 25.7335404,14.8430859 25.4526713,14.5620556 C25.1781194,14.2876649 24.8940466,14.0038739 24.6321708,13.7424678 C24.6212446,13.7315393 24.6106397,13.7205651 24.6003514,13.7095496 C24.2515477,13.3607788 24.0121178,13.1214941 24.0121178,13.1214941 C23.3557282,12.4660252 22.3980074,12.4666988 21.7420782,13.1226281 C21.7420782,13.1226281 19.0588141,15.80214 18.0813564,16.7833498 C18.0013783,16.8628723 17.9179581,16.9231306 17.8333491,16.9663759 C17.5787725,17.2210043 17.4148469,17.3850341 17.4148469,17.3850341 C16.7887326,18.0111484 16.7600516,18.9991445 17.4159808,19.6550737 L18.5424306,20.7815234 C19.3539535,21.5930464 18.1854531,22.7463718 17.3815176,21.9424364 L16.2546813,20.8163732 C14.9730244,19.5339431 14.9726378,17.5069121 16.2546813,16.2248686 C17.5367248,14.9428251 17.3035445,15.1756115 18.4677196,14.0121454 C18.5507927,13.9300449 18.6364507,13.8662819 18.7226932,13.8188574 C19.3265899,13.2148915 19.9425823,12.5991402 20.5807787,11.9613286 C21.8632088,10.6796717 23.8900823,10.6794426 25.1722833,11.9613286 C26.0991191,12.8879366 26.2654359,13.0541492 26.7258668,13.5148074 C27.0225379,13.8114479 27.253535,14.0425802 28.004705,14.7937503 C29.2867485,16.0757937 29.2863619,18.1028248 28.004705,19.3852549 L27.8319476,19.5572392 C27.0280121,20.3611746 25.8595117,19.2078492 26.6710346,18.3963262 L26.8434055,18.2239554 C27.4993347,17.5680261 27.4706537,16.5800301 26.8445395,15.9539158 C26.8445395,15.9539158 26.6324258,15.7416674 26.3160528,15.425255 C26.3050579,15.4149846 26.294104,15.4043987 26.2831957,15.3934927 Z M13.6828969,24.5098153 C13.944303,24.7716911 14.2325523,25.0602221 14.5134213,25.3412524 C14.7879733,25.6156431 15.0720461,25.8994341 15.3339219,26.1608402 C15.344848,26.1717687 15.355453,26.1827429 15.3657412,26.1937584 C15.714545,26.5425292 15.9539749,26.7818139 15.9539749,26.7818139 C16.6103644,27.4372828 17.5680852,27.4366092 18.2240145,26.7806799 C18.2240145,26.7806799 20.9072785,24.101168 21.8847362,23.1199582 C21.9647143,23.0404357 22.0481346,22.9801774 22.1327436,22.9369321 C22.3873202,22.6823037 22.5512458,22.5182739 22.5512458,22.5182739 C23.1773601,21.8921596 23.2060411,20.9041635 22.5501118,20.2482343 L21.4236621,19.1217846 C20.6121391,18.3102616 21.7806396,17.1569362 22.584575,17.9608716 L23.7114113,19.0869348 C24.9930683,20.3693649 24.9934548,22.3963959 23.7114113,23.6784394 C22.4293678,24.9604829 22.6625481,24.7276965 21.4983731,25.8911626 C21.4153,25.9732631 21.3296419,26.0370261 21.2433994,26.0844506 C20.6395027,26.6884165 20.0235103,27.3041678 19.3853139,27.9419794 C18.1028839,29.2236363 16.0760104,29.2238654 14.7938093,27.9419794 C13.8669736,27.0153714 13.7006567,26.8491588 13.2402259,26.3885006 C12.9435548,26.0918601 12.7125577,25.8607278 11.9613877,25.1095577 C10.6793442,23.8275143 10.6797307,21.8004832 11.9613877,20.5180531 L12.1341451,20.3460688 C12.9380805,19.5421334 14.106581,20.6954588 13.295058,21.5069818 L13.1226872,21.6793526 C12.4667579,22.3352819 12.4954389,23.3232779 13.1215532,23.9493922 C13.1215532,23.9493922 13.3336668,24.1616406 13.6500399,24.478053 C13.6610348,24.4883234 13.6719887,24.4989093 13.6828969,24.5098153 Z" id="path-1"></path>
    </defs>
    <g id="Page-1" stroke="none" stroke-width="1" fill="none" fill-rule="evenodd">
        <g id="2-Landing-V2" transform="translate(-177.000000, -403.000000)">
            <g id="Group-4" transform="translate(155.000000, 381.000000)">
                <g id="Group-3">
                    <g id="Group-5" transform="translate(22.000000, 22.000000)">
                        <circle id="Oval" fill="#F1F3F8" cx="20" cy="20" r="20"></circle>
                        <mask id="mask-2" fill="white">
                            <use xlink:href="#path-1"></use>
                        </mask>
                        <use id="Shape" fill="#3B57BA" xlink:href="#path-1"></use>
                    </g>
                </g>
            </g>
        </g>
    </g>
</svg>