<?xml version="1.0" encoding="UTF-8"?>
<svg width="19px" height="18px" viewBox="0 0 19 18" version="1.1" xmlns="http://www.w3.org/2000/svg" xmlns:xlink="http://www.w3.org/1999/xlink">
    <!-- Generator: Sketch 51.3 (57544) - http://www.bohemiancoding.com/sketch -->
    <title>Shape</title>
    <desc>Created with Sketch.</desc>
    <defs>
        <path d="M18.2355026,7.38069881 C17.9740965,7.11882302 17.6858473,6.83029204 17.4049782,6.54926166 C17.1304262,6.27487104 16.8463535,5.99107996 16.5844777,5.72967389 C16.5735515,5.71874543 16.5629466,5.70777117 16.5526583,5.69675573 C16.2038545,5.34798493 15.9644247,5.10870022 15.9644247,5.10870022 C15.3080351,4.45323132 14.3503143,4.45390494 13.6943851,5.10983417 C13.6943851,5.10983417 11.011121,7.7893461 10.0336633,8.77055594 C9.95368524,8.85007836 9.870265,8.91033673 9.78565595,8.95358197 C9.53107939,9.20821041 9.36715375,9.37224021 9.36715375,9.37224021 C8.74103949,9.99835447 8.71235848,10.9863506 9.36828771,11.6422798 L10.4947375,12.7687295 C11.3062604,13.5802525 10.13776,14.7335779 9.33382453,13.9296425 L8.20698822,12.8035793 C6.92533129,11.5211492 6.92494472,9.49411817 8.20698822,8.21207467 C9.48903171,6.93003118 9.25585144,7.16281761 10.4200265,5.99935149 C10.5030996,5.91725103 10.5887576,5.85348798 10.6750001,5.8060635 C11.2788968,5.20209757 11.8948892,4.58634631 12.5330856,3.94853468 C13.8155157,2.66687775 15.8423892,2.66664873 17.1245902,3.94853468 C18.051426,4.87514271 18.2177428,5.04135525 18.6781737,5.50201353 C18.9748448,5.79865404 19.2058419,6.02978633 19.9570119,6.78095635 C21.2390554,8.06299985 21.2386688,10.0900309 19.9570119,11.372461 L19.7842545,11.5444453 C18.980319,12.3483807 17.8118186,11.1950553 18.6233415,10.3835323 L18.7957124,10.2111615 C19.4516416,9.55523224 19.4229606,8.56723615 18.7968464,7.94112189 C18.7968464,7.94112189 18.5847327,7.72887347 18.2683597,7.41246111 C18.2573647,7.40219069 18.2464109,7.39160479 18.2355026,7.38069881 Z M5.63520384,16.4970214 C5.8966099,16.7588972 6.1848592,17.0474282 6.46572822,17.3284585 C6.7402802,17.6028492 7.02435297,17.8866402 7.28622876,18.1480463 C7.29715494,18.1589748 7.30775985,18.169949 7.31804813,18.1809645 C7.6668519,18.5297353 7.90628176,18.76902 7.90628176,18.76902 C8.56267133,19.4244889 9.52039212,19.4238153 10.1763213,18.767886 C10.1763213,18.767886 12.8595854,16.0883741 13.8370431,15.1071643 C13.9170212,15.0276418 14.0004414,14.9673835 14.0850505,14.9241382 C14.3396271,14.6695098 14.5035527,14.50548 14.5035527,14.50548 C15.129667,13.8793657 15.158348,12.8913696 14.5024187,12.2354404 L13.375969,11.1089907 C12.564446,10.2974677 13.7329465,9.14414231 14.5368819,9.94807774 L15.6637182,11.0741409 C16.9453752,12.356571 16.9457617,14.383602 15.6637182,15.6656455 C14.3816747,16.947689 14.614855,16.7149026 13.45068,17.8783687 C13.3676069,17.9604692 13.2819488,18.0242322 13.1957063,18.0716567 C12.5918096,18.6756226 11.9758172,19.2913739 11.3376208,19.9291855 C10.0551908,21.2108424 8.02831726,21.2110715 6.74611623,19.9291855 C5.81928045,19.0025775 5.65296362,18.8363649 5.1925328,18.3757067 C4.89586167,18.0790662 4.66486458,17.8479339 3.91369456,17.0967638 C2.63165106,15.8147203 2.63203763,13.7876893 3.91369456,12.5052592 L4.08645199,12.3332749 C4.89038742,11.5293395 6.05888789,12.6826649 5.24736491,13.4941879 L5.07499404,13.6665587 C4.41906481,14.322488 4.44774583,15.310484 5.07386009,15.9365983 C5.07386009,15.9365983 5.28597372,16.1488467 5.60234678,16.4652591 C5.6133417,16.4755295 5.62429558,16.4861154 5.63520384,16.4970214 Z" id="path-1"></path>
    </defs>
    <g id="Symbols" stroke="none" stroke-width="1" fill="none" fill-rule="evenodd">
        <g id="icon-report" transform="translate(-2.000000, -3.000000)">
            <mask id="mask-2" fill="white">
                <use xlink:href="#path-1"></use>
            </mask>
            <use id="Shape" fill="#BFC5D2" xlink:href="#path-1"></use>
        </g>
    </g>
</svg>