<?xml version="1.0" encoding="UTF-8"?>
<svg width="37px" height="37px" viewBox="0 0 37 37" version="1.1" xmlns="http://www.w3.org/2000/svg" xmlns:xlink="http://www.w3.org/1999/xlink">
    <!-- Generator: Sketch 51.3 (57544) - http://www.bohemiancoding.com/sketch -->
    <title>noun_drag_2080249</title>
    <desc>Created with Sketch.</desc>
    <defs></defs>
    <g id="Page-1" stroke="none" stroke-width="1" fill="none" fill-rule="evenodd" opacity="0.516852679">
        <g id="6.3-–-Analytics--new-notes" transform="translate(-611.000000, -470.000000)" fill="#000000" fill-rule="nonzero">
            <g id="noun_drag_2080249" transform="translate(611.000000, 470.000000)">
                <path d="M36.7960347,18.1002425 L31.7128557,14.5149126 C31.493943,14.3603336 31.1886282,14.4104895 31.0316092,14.6279691 C30.875421,14.8454487 30.9260991,15.1472068 31.146258,15.3026081 L34.9857467,18.0106195 L19.0670097,18.0106195 L19.0670097,1.98331931 L21.8032114,5.78325097 C21.8987521,5.91562985 22.0491248,5.98593044 22.2019898,5.98593044 C22.2996075,5.98593044 22.3988867,5.95674131 22.4848733,5.89630747 C22.7046168,5.74131729 22.7557103,5.4391481 22.5995221,5.22166851 L18.9764538,0.190859924 C18.7932649,-0.0636199746 18.3637473,-0.0636199746 18.1805585,0.190859924 L14.5579056,5.22166851 C14.4013019,5.4391481 14.4523954,5.74131729 14.6725544,5.89630747 C14.8922979,6.05170876 15.1971972,6.00073056 15.3538009,5.78325097 L18.0900025,1.98373042 L18.0900025,18.0110306 L2.01549272,18.0110306 L5.85498142,15.3030192 C6.07514035,15.148029 6.12623384,14.8458598 5.96963022,14.6283802 C5.813442,14.4117229 5.50895804,14.3599224 5.28838371,14.5153237 L0.205204741,18.1002425 C0.076432535,18.1910988 0,18.3378667 0,18.4940902 C0,18.6503138 0.076432535,18.7970816 0.205204741,18.887938 L5.28838371,22.4732678 C5.37437032,22.5341128 5.47323414,22.5628908 5.57126717,22.5628908 C5.72413224,22.5628908 5.87450495,22.4921791 5.96963022,22.3602113 C6.12623384,22.1427317 6.07514035,21.8409737 5.85498142,21.6855724 L2.01549272,18.9775609 L18.0895871,18.9775609 L18.0895871,35.0048612 L15.3533855,31.2049295 C15.1971972,30.987861 14.8922979,30.9364717 14.672139,31.091873 C14.45198,31.2468632 14.4008865,31.5490324 14.5574902,31.7665119 L18.1801431,36.7973205 C18.2715298,36.924766 18.4202409,37 18.5780907,37 C18.7359405,37 18.8842363,36.9243549 18.9760384,36.7973205 L22.5986913,31.7665119 C22.7548795,31.5490324 22.7042015,31.2472743 22.4840425,31.091873 C22.2651298,30.9372939 21.959815,30.987861 21.802796,31.2049295 L19.0665943,35.0048612 L19.0665943,18.977972 L34.9849159,18.977972 L31.1454272,21.6859835 C30.9252683,21.8409737 30.8741748,22.1431429 31.0307784,22.3606224 C31.1263191,22.4930013 31.2762764,22.5633019 31.4291415,22.5633019 C31.5267591,22.5633019 31.6260383,22.5341128 31.7120249,22.4736789 L36.7952039,18.8883491 C36.9239761,18.7974928 36.9999933,18.6507249 36.9999933,18.4945013 C37.000824,18.3378667 36.9248069,18.1915099 36.7960347,18.1002425 Z" id="Shape"></path>
            </g>
        </g>
    </g>
</svg>