<?xml version="1.0" encoding="UTF-8"?>
<svg width="170px" height="159px" viewBox="0 0 170 159" version="1.1" xmlns="http://www.w3.org/2000/svg" xmlns:xlink="http://www.w3.org/1999/xlink">
    <!-- Generator: Sketch 51.3 (57544) - http://www.bohemiancoding.com/sketch -->
    <title>Cards</title>
    <desc>Created with Sketch.</desc>
    <defs></defs>
    <g id="Page-1" stroke="none" stroke-width="1" fill="none" fill-rule="evenodd" opacity="0.5">
        <g id="3-Data-room-empty" transform="translate(-635.000000, -374.000000)" fill="#8795C6">
            <g id="Cards" transform="translate(635.000000, 374.000000)">
                <path d="M55.5090174,0.361698176 C47.0847828,0.456332559 38.6647208,0.76714156 30.2571769,1.29922801 C22.261804,1.8058003 13.5867431,1.42123214 5.7216514,2.9711021 C3.48832512,3.41087365 0.471456933,5.44644066 3.44103443,7.68519325 C5.52831591,9.2591857 13.164836,7.4486073 15.6573338,7.29552227 C24.8363651,6.73142713 34.0200327,6.05553352 43.2120457,5.7308077 C51.9139973,5.42324596 60.6154853,5.31469475 69.3216096,5.22794657 C70.650849,5.21495754 72.8572845,4.78863892 74.1809604,5.17459876 C76.0827881,5.72941602 75.631672,5.88018158 75.7740077,8.29428612 C76.032252,12.6683429 75.9608523,17.0581722 75.8741527,21.436404 C75.7902349,25.6731482 75.6335265,29.9094285 75.6488265,34.1480283 C75.65949,37.1721535 74.6928126,43.1814368 76.2102876,45.8075409 C78.3944686,49.5878133 80.6602493,45.4818873 80.8234485,42.9699011 C81.135938,38.1653506 80.9959205,33.3018856 80.9973114,28.4913045 C80.9982387,23.97576 81.0306931,19.4602155 80.8716665,14.9469904 C80.7562216,11.6867432 81.222174,5.99569119 79.4659274,3.03187222 C77.6772264,0.0133137587 73.3705277,0.664157085 70.2280146,0.520349935 C65.3260094,0.294897436 60.4151953,0.310669833 55.5090174,0.361698176" id="Fill-173"></path>
                <path d="M1.90960914,5.81040304 C1.91888183,14.294561 0.937368078,22.7221239 0.662432956,31.19654 C0.536324435,35.092786 0.280398318,39.3712807 1.26608477,43.1960869 C2.26104392,47.0580048 5.4211751,47.8948696 5.785128,43.5834385 C6.52230649,34.8529528 6.34148912,25.8000608 6.91546835,16.9995271 C7.11807652,13.8923649 8.43665239,8.19806562 7.2057034,5.28852225 C6.12172648,2.72550773 1.9049728,2.23424395 1.90960914,5.81040304" id="Fill-171"></path>
                <path d="M80.9059291,43.207554 C66.2759497,45.1443116 50.9815824,44.4382649 36.2472853,44.7425794 C29.1782536,44.888706 22.1106128,44.8979839 15.0406539,44.971743 C12.5731923,44.9972572 6.30717512,44.0587996 4.17260294,45.4458427 C0.774627382,47.6539783 4.46144709,49.3578611 6.71100057,49.4065699 C20.6631466,49.7122761 34.7706102,49.0707107 48.7199745,48.6128473 C54.9873825,48.4073422 61.2751905,48.3066772 67.5259077,47.7741269 C71.3740721,47.4461538 75.579235,47.1283864 79.3161272,46.0943666 C80.1121872,45.873553 81.8457157,45.9194785 82.0242149,44.8335026 C82.1340963,44.161784 81.9347335,43.0656024 80.9059291,43.207554" id="Fill-175"></path>
                <path d="M20.0702048,55.5401768 C16.0041322,55.5638354 3.75120576,53.6753228 2.06728609,57.6402251 C-0.177631044,62.9281532 8.57995667,61.6937312 10.9352188,61.6334249 C16.284631,61.4961123 21.6303341,61.4812677 26.9811372,61.4835872 C32.2313317,61.4859066 37.4810625,61.4520424 42.7303297,61.3272549 C44.2510501,61.2906073 47.7908977,61.921967 48.6657756,60.0905134 C49.3306272,58.6988313 48.8053295,57.6007941 47.5790169,56.8641304 C44.6284484,55.0906635 36.963183,56.1191166 33.5086441,55.959537 C29.0359643,55.7535681 24.5484482,55.5401768 20.0702048,55.5401768" id="Fill-177"></path>
                <path d="M69.5366895,56.5191788 C67.2129546,56.6574192 62.5126303,55.699478 60.4309125,56.7627232 C58.0649868,57.971631 58.8986012,59.8643187 60.9413738,60.6960807 C62.355922,61.2717732 68.1587685,60.9697781 69.5366895,60.3026985 C70.9730285,59.6068575 72.5971393,56.3308378 69.5366895,56.5191788" id="Fill-179"></path>
                <path d="M95.0127899,6.64286975 C92.5309557,7.32386619 93.2838977,21.4137196 93.2199162,23.6473694 C93.0446624,29.7670594 92.3566292,37.4639892 94.3901291,43.3577629 C95.6869141,47.1148407 98.1775574,46.605485 97.7533321,42.6498606 C97.3805701,39.1780777 96.7412185,35.7461896 96.4644288,32.2516759 C95.8385225,24.3446021 94.9868264,15.9105447 95.5779601,7.99697643 C95.8297135,8.45669542 98.1840483,12.7217371 98.7380913,12.4035058 C98.5707193,12.5027792 96.0225853,6.37659458 95.0127899,6.64286975" id="Fill-181"></path>
                <path d="M122.930017,1.45347278 C117.907467,1.52769583 112.884917,1.61676348 107.863758,1.75593169 C103.871404,1.86726626 97.5979682,1.2113201 93.9366484,2.89061649 C89.5770954,4.88999977 91.6453678,9.34523805 95.7401857,9.43940854 C99.3625603,9.52290946 103.225561,8.70599207 106.880854,8.58074068 C116.753945,8.24256193 126.644655,8.17065836 136.522383,8.08622964 C145.455688,8.00922324 154.76871,8.96206158 163.623661,7.62048004 C164.937137,19.2832399 161.384771,30.9951725 162.593002,42.7919977 C162.78031,44.6229875 162.696392,47.2101245 165.028009,47.6271652 C167.970696,48.1536849 168.091704,45.2390387 168.20344,43.1519795 C168.521957,37.1927968 168.349485,31.2289751 168.785765,25.2619062 C169.190054,19.7322893 169.986114,14.0806683 169.313381,8.54223748 C168.486257,1.72670636 165.220417,2.27317353 159.447243,1.98973428 C147.254126,1.39177487 135.13658,1.27440968 122.930017,1.45347278" id="Fill-183"></path>
                <path d="M106.097683,42.8664527 C103.538421,42.930934 99.2878224,42.1423141 97.647948,44.5963136 C95.9417739,47.1495863 97.9660011,49.3767416 100.446908,49.9009418 C103.383568,50.5211681 107.212723,49.6708504 110.260655,49.6615725 C113.434695,49.6522946 116.609662,49.6875506 119.783703,49.7000757 C133.391832,49.7534235 147.058379,49.9593925 160.656772,49.396689 C162.555818,49.3182909 167.945567,49.9552174 169.25997,48.1335056 C170.426474,46.5177626 169.610478,45.0685577 168.074457,44.2456097 C165.554141,42.8952142 160.377665,43.4087448 157.574532,43.3015853 C154.112575,43.1698394 150.646445,43.1266973 147.182633,43.0728856 C133.510986,42.8618138 119.767939,42.528274 106.097683,42.8664527" id="Fill-185"></path>
                <path d="M117.609072,54.6703755 C112.516514,54.7571237 107.083184,54.5335268 102.041161,55.3059103 C97.60789,55.9850512 97.0621925,60.2705043 101.83438,60.7719737 C106.219897,61.2330844 111.536854,60.3716332 115.943698,60.0886578 C117.508927,59.9879928 119.329156,60.1308722 120.079316,58.4005474 C120.862394,56.5927524 119.365319,54.8591804 117.609072,54.6703755" id="Fill-187"></path>
                <path d="M156.108381,55.1202136 C153.390093,55.1879421 145.45082,54.019393 144.104426,57.1237719 C141.863218,62.2924792 152.611188,60.3288158 154.67297,60.2527371 C157.27164,60.157175 167.39973,61.6745723 167.402048,57.5375654 C167.404367,53.4808121 158.59717,55.0585157 156.108381,55.1202136" id="Fill-189"></path>
                <path d="M1.47007879,80.8038458 C1.47656967,90.2065139 0.891463218,99.6973219 1.74918662,109.075868 C2.10386683,112.954949 2.04313074,120.385604 4.28990241,123.674149 C5.8848043,126.008464 8.0968034,125.844709 8.96797219,123.041861 C9.55029683,121.168193 8.61885559,117.420857 8.51500151,115.416371 C8.41485651,113.492603 8.29802067,111.569762 8.20900289,109.645529 C7.9804312,104.688358 7.99851293,99.7386085 8.06666717,94.7786535 C8.12508509,90.5242813 9.14925319,84.8953912 8.18350301,80.8038458 C7.28312526,76.9906369 1.47007879,76.0990325 1.47007879,80.8038458" id="Fill-191"></path>
                <path d="M95.9667638,72.5321049 C79.653792,72.9412595 63.3041931,72.575711 47.005594,73.3833505 C38.9675667,73.7813716 30.9610665,74.6558118 22.9633753,75.5274687 C19.0340749,75.9561068 15.1070926,76.3977339 11.1847467,76.8811115 C10.0010884,77.0267742 0.165551042,77.4080951 3.86488888,81.1484727 C5.48019067,82.7818436 10.6205038,81.0756413 12.6544674,80.8348803 C16.5925768,80.3700585 20.5385681,79.9646151 24.4822412,79.5475744 C31.9866255,78.7538517 39.5002825,78.0018795 47.0366575,77.5848387 C64.7859683,76.6013834 82.6085332,76.89642 100.375462,76.2409377 C105.181495,76.0637302 109.973155,75.9366232 114.781042,76.125892 C116.043519,76.1755287 125.32084,76.646845 121.292786,73.2205237 C119.388176,71.5996779 112.206945,72.4360789 109.826647,72.38737 C105.206995,72.2918078 100.584561,72.4161314 95.9667638,72.5321049" id="Fill-193"></path>
                <path d="M121.373758,122.137684 C121.371236,122.141487 121.368694,122.145276 121.366133,122.149051 C120.477346,123.459088 117.192961,123.094467 115.754767,123.192349 C111.377596,123.489705 107.081561,123.991638 102.743335,124.642017 C94.0993377,125.937673 85.5304491,126.734179 76.7927977,126.950354 C59.5117575,127.3776 42.1593177,126.978188 24.9042411,128.162045 C21.0825038,128.424609 17.3187208,128.874586 13.5595742,129.594086 C10.8751318,130.108545 5.70190058,131.868559 5.38802018,127.433732 C5.00923098,122.089672 18.4175341,122.09895 22.2513258,121.742216 C38.7126606,120.210902 55.4447577,120.533772 71.9566286,120.763863 C79.941338,120.874734 87.9112111,121.118742 95.8894296,120.630726 C103.859886,120.143194 112.100619,120.271197 120.012688,119.414042 C118.993653,115.462962 119.142769,110.522232 118.856851,106.485205 C118.122455,96.1204206 118.319036,85.7199164 117.846129,75.3444625 C117.637957,70.7732507 123.864565,70.0806569 125.71122,73.7806757 C127.576421,77.5182699 126.364481,84.9340799 126.485026,89.0780453 C126.764134,98.6723017 128.543098,109.41284 126.663989,118.901793 C126.010351,122.201951 123.226534,123.936411 121.373758,122.137684 Z" id="Wireframy-Stuff"></path>
                <path d="M131.407848,78.6927568 C129.204195,78.9924324 127.365885,80.8786255 128.349717,83.270927 C129.589011,86.282991 133.280003,85.1060918 135.718256,84.9154314 C143.468366,84.3081941 151.560175,85.5208131 159.216632,84.6060141 C161.307622,84.3559752 164.341181,83.2171153 162.463926,80.4073092 C161.052623,78.2956635 155.910919,78.6663149 153.725347,78.4640571 C146.250172,77.7723911 138.873287,77.9570209 131.407848,78.6927568" id="Fill-199"></path>
                <path d="M144.488316,91.8339934 C141.482575,92.0362512 134.48587,91.8771355 133.219221,95.2969623 C130.947413,101.431961 139.846409,99.2702147 142.555888,98.9213664 C145.703501,98.515923 153.123504,99.601435 154.799542,96.5490123 C157.796474,91.0908351 147.124076,91.6521469 144.488316,91.8339934" id="Fill-201"></path>
                <path d="M136.759115,105.297775 C135.33344,106.72425 135.331121,109.271492 136.759115,110.697966 C138.50748,112.444527 142.316699,112.081762 144.614007,112.209333 C147.818183,112.388396 157.02086,114.083001 158.612053,110.31015 C160.758679,105.219377 152.425317,105.326073 149.684311,105.037067 C146.516298,104.703527 139.384676,102.670743 136.759115,105.297775" id="Fill-203"></path>
                <path d="M24.437176,18.158668 C24.437176,23.6316898 32.985201,23.6316898 32.985201,18.158668 C32.985201,12.7153354 24.437176,12.6322984 24.437176,18.158668" id="Fill-205"></path>
                <path d="M40.6512082,18.220737 C40.6512082,24.4777397 50.3875278,24.4652146 50.3875278,18.220737 C50.3875278,11.9855373 40.6512082,11.9219838 40.6512082,18.220737" id="Fill-207"></path>
                <path d="M30.8424688,26.540027 C26.1096902,27.8468165 30.4697069,31.8576443 32.6673333,32.773835 C36.1598903,34.2304623 40.9265142,35.303913 44.4199984,33.1203638 C45.809974,32.2514903 46.9384598,31.0968581 45.9198553,29.4106033 C44.8344875,27.6153334 43.3485396,28.413695 41.6961471,28.5793052 C39.6028384,28.7899131 37.9110369,28.7574405 35.8895915,28.0861858 C34.3809256,27.5851803 32.4879069,26.0872664 30.8424688,26.540027" id="Fill-209"></path>
                <path d="M116.689964,18.5051968 C116.689964,22.2070712 122.438101,22.2070712 122.438101,18.5051968 C122.438101,14.8033224 116.689964,14.8033224 116.689964,18.5051968" id="Fill-211"></path>
                <path d="M129.40212,19.0624263 C129.40212,23.1753108 135.787755,23.1757747 135.787755,19.0624263 C135.787755,14.9490779 129.40212,14.9495418 129.40212,19.0624263" id="Fill-213"></path>
                <path d="M128.929167,27.9883042 C125.574773,28.4206534 115.873226,29.4041088 115.33031,33.5387963 C114.492986,39.9178031 125.123193,34.7551264 127.549391,34.2541209 C130.639514,33.6162666 133.399065,33.7828045 136.484087,33.9066642 C138.177743,33.9743928 140.430542,34.249018 140.25297,31.6688394 C139.961808,27.4320952 131.86119,27.61255 128.929167,27.9883042" id="Fill-215"></path>
                <path d="M44.5916822,86.8145208 C42.1603841,87.4630446 38.979853,91.6663884 40.6526454,94.2386809 C43.3955058,98.4577971 44.6051276,91.9799808 45.753086,91.3565072 C47.8417584,90.2218224 49.5372689,94.3676434 51.7200591,92.1929082 C55.1643981,88.761484 46.7600997,86.2337254 44.5916822,86.8145208" id="Fill-217"></path>
                <path d="M72.4503527,83.6958076 C69.5670112,83.7222495 63.4799569,87.804517 63.048777,90.8184365 C62.7928509,92.6095314 63.9802183,94.3301144 65.9107914,94.3542369 C68.5395977,94.3862455 69.3750666,90.9682743 71.6538291,90.2534136 C74.1120179,89.4824217 73.7471378,91.2577442 75.8701191,92.17811 C77.4237575,92.852148 79.3668488,92.5701004 79.906519,90.6597848 C80.9246599,87.0567198 75.4129757,83.6392125 72.4503527,83.6958076" id="eye"></path>
                <path d="M50.3796461,100.953779 C45.767876,103.656426 53.3561781,109.44907 55.9868389,110.173673 C59.9583301,111.266607 67.9513849,109.226401 68.8925624,104.374997 C69.2671789,102.44427 68.0594116,100.69539 65.9285485,101.040991 C64.1741565,101.325822 63.0489161,103.526535 61.423878,104.314691 C59.2304243,105.3784 57.2803785,105.306033 55.4165688,103.704671 C53.8981665,102.4002 53.084952,99.3760753 50.3796461,100.953779" id="Fill-221"></path>
                <path d="M53.722171,140.88536 C49.6018532,141.763975 45.4133812,141.174366 41.2731272,142.000561 C37.0512735,142.843456 34.5281758,144.438324 30.6058299,142.831395 C30.4213035,142.753461 30.2372407,142.675527 30.0531779,142.597593 C27.0173007,141.290339 23.8353787,140.902988 20.6576294,142.987264 C18.7771288,144.220294 13.0684,148.485799 13.7564333,151.088709 C15.2474811,156.731516 21.6711339,147.883201 23.3091538,147.020822 C26.4326579,145.376318 28.5741845,147.477294 31.7899518,148.07015 C35.6418253,148.780372 38.7412204,146.744805 42.3696222,145.934382 C46.6132667,144.986183 51.3873088,144.65589 55.7046711,144.14839 C57.4103816,143.947988 63.8711251,145.296992 64.454377,143.174213 C65.4562907,139.527542 55.3416455,140.541614 53.722171,140.88536" id="Fill-223"></path>
                <path d="M83.449334,152.249836 C83.7187055,152.453949 83.5026519,152.290194 83.449334,152.249836 M94.9891909,140.664546 C98.5165204,140.306884 109.802306,137.787011 112.11955,141.431827 C113.628679,143.806036 111.233545,152.568531 108.948755,153.701824 C107.1225,154.606881 102.868655,153.606262 100.864828,153.535286 C97.1362812,153.404004 93.3998526,153.345553 89.6754786,153.113142 C88.4264478,153.035208 84.4072024,153.264836 83.4280068,152.159376 C82.2717029,150.853978 82.3231663,143.895104 82.051013,142.169418 C85.2941347,143.219211 91.5981699,141.009219 94.9891909,140.664546 M102.521393,137.09117 C98.0037409,137.286934 93.4870159,137.626504 89.0032089,138.23235 C86.5037565,138.570065 83.9713861,139.468163 81.6629511,139.893554 C80.9188181,140.030867 79.7110508,139.650474 78.7986186,140.091173 C76.1322579,141.378943 78.4671201,150.088553 79.1101808,152.415446 C80.0977218,155.989749 82.5832651,156.568689 86.0656221,156.905476 C90.6528196,157.349887 95.3341348,157.210255 99.9357049,157.153659 C104.371294,157.099384 110.352176,158.082375 112.840965,153.631776 C114.449776,150.754241 116.175422,144.052828 114.800283,140.845929 C112.991182,136.626349 106.236495,136.935302 102.521393,137.09117" id="Fill-225"></path>
                <path d="M153.110847,154.643622 C152.869293,154.953967 152.869293,154.953967 153.110847,154.643622 M154.100706,153.450486 C154.026061,153.563676 153.679262,153.929689 154.100706,153.450486 M143.327236,153.122513 C145.318545,152.747687 147.310782,152.377035 149.304409,152.013342 C147.41649,154.656147 145.428427,153.563676 142.203387,153.333585 C142.578003,153.263073 142.95262,153.193025 143.327236,153.122513 M133.826443,152.187303 C134.33134,152.018445 134.835775,151.849588 135.340672,151.68073 C135.325372,152.064835 135.407899,152.424816 135.588253,152.759748 C134.724039,152.666505 133.860752,152.566304 132.998392,152.460072 C133.274254,152.369149 133.55058,152.278226 133.826443,152.187303 M129.423772,148.936333 C129.39549,148.242812 130.438204,148.718767 131.035828,148.672378 C129.883697,149.68645 129.346345,149.77459 129.423772,148.936333 M145.169255,141.071938 C145.320864,140.878494 145.521617,140.888236 145.771516,141.101163 C145.498899,141.19255 144.448768,141.637889 145.169255,141.071938 M155.380336,139.870916 C155.407227,139.870916 155.973788,140.635877 155.380336,139.870916 M155.09381,139.620413 C155.242173,139.733604 155.242173,139.733604 155.09381,139.620413 M153.81928,139.471503 C155.907025,139.823599 155.748462,142.273887 153.81928,139.471503 M129.290709,139.304502 C128.866483,139.656597 129.011601,139.315171 129.290709,139.304502 M137.274954,134.088013 C133.73047,134.294446 127.224291,134.086621 124.263986,135.975134 C120.400985,138.440267 122.433558,146.925817 122.779429,150.645783 C123.290354,156.144319 125.877433,157.709961 131.055764,158.287045 C137.235546,158.975928 143.585017,159.104427 149.796789,158.941136 C155.391,158.794082 158.577095,156.869849 159.601726,150.979787 C159.915607,149.177558 160.71213,146.389555 160.687094,144.663405 C160.66994,143.466095 160.073242,142.920092 159.847453,141.901844 C158.562722,136.105024 156.414241,135.417533 150.472768,135.164711 C146.099769,134.97869 141.56589,133.863488 137.274954,134.088013" id="quare"></path>
            </g>
        </g>
    </g>
</svg>