<?xml version="1.0" encoding="UTF-8"?>
<svg width="114px" height="130px" viewBox="0 0 114 130" version="1.1" xmlns="http://www.w3.org/2000/svg" xmlns:xlink="http://www.w3.org/1999/xlink">
    <!-- Generator: Sketch 51.3 (57544) - http://www.bohemiancoding.com/sketch -->
    <title>List</title>
    <desc>Created with Sketch.</desc>
    <defs></defs>
    <g id="Page-1" stroke="none" stroke-width="1" fill="none" fill-rule="evenodd" opacity="0.5">
        <g id="4---service-requests-empty" transform="translate(-663.000000, -409.000000)" fill="#8795C6">
            <g id="List" transform="translate(663.000000, 409.000000)">
                <path d="M2.5861249,10.5687886 C2.58333306,17.0439512 2.29623918,23.6533415 3.34271265,30.0508211 C3.65958612,31.9876098 3.90945551,35.6973659 5.70134939,36.7024878 C7.50115347,37.7118374 9.24605143,36.5777724 9.69321061,34.4739919 C10.2148188,32.026187 9.07063102,28.362935 8.9547698,25.7930569 C8.7956351,22.2825285 8.78493306,18.7677724 8.78353714,15.2530163 C8.78260653,12.7148455 9.51499837,8.63147154 6.88741469,7.32565854 C4.93359429,6.35435772 2.5861249,8.16008943 2.5861249,10.5687886" id="Fill-253"></path>
                <path d="M92.3534008,0.327378049 C73.540609,2.48083333 54.457009,2.92843496 35.5762824,4.05140244 C26.8485355,4.57034553 16.3009763,3.90819106 8.07855184,7.76063008 C6.55234776,8.47615854 1.0836049,12.4580691 5.52309061,14.0793699 C6.90691102,14.5851016 8.31260082,12.885061 9.44887837,12.3153862 C11.3412784,11.3678659 13.5319396,11.0745732 15.5499722,10.7046545 C32.7062743,7.5629878 50.6512702,8.10993902 67.9839233,6.64189024 C72.4252702,6.26563008 76.8684784,5.87827236 81.3005192,5.38099593 C84.4669273,5.02587398 91.1222008,2.42323171 94.0443233,3.75441057 C99.0375233,6.02888211 98.9207314,20.8076626 99.0193763,25.8903455 C99.07056,28.5188821 96.8333682,37.9544512 101.280764,36.9979472 C104.840356,36.2322154 103.551458,26.4298984 103.274136,23.7485163 C102.546397,16.720061 101.304495,-0.706808943 92.3534008,0.327378049" id="Fill-255"></path>
                <path d="M99.2911616,36.6571463 C82.9500759,38.339748 66.2325576,36.6888537 49.8244678,37.3504797 C41.2237494,37.6982033 32.6318718,38.250439 24.0302229,38.5743821 C20.3101004,38.7149512 16.5862555,38.7207642 12.8642718,38.7508862 C11.0840106,38.764626 2.98256571,39.9953984 7.99437796,44.0201138 C10.2134229,45.802065 17.2851453,44.3667805 19.8313004,44.3319024 C23.6556514,44.2806423 27.4781412,44.0993821 31.2997004,43.9286911 C40.1521494,43.533935 48.9990147,42.9869837 57.8561167,42.7137724 C66.3284106,42.452187 74.8048922,42.3961707 83.2767208,42.1345854 C87.4923943,42.0040569 91.7653004,41.8566179 95.9432841,41.1548293 C96.8859943,40.9962927 99.9481739,40.8705203 100.60286,39.6714553 C101.221717,38.5379187 100.787121,36.4927967 99.2911616,36.6571463" id="Fill-257"></path>
                <path d="M18.9786269,22.6665041 C18.8906841,22.9037805 18.8906841,22.9037805 18.9786269,22.6665041 M26.0550024,20.2139431 C26.3132473,20.3386585 26.3132473,20.3386585 26.0550024,20.2139431 M25.7237045,20.1457724 C29.5373535,24.5784553 23.6726351,29.8693496 20.10048,25.5434146 C16.3087004,20.9521951 23.2687494,20.1605691 25.7237045,20.1457724 M21.6792637,13.4396748 C8.54367184,16.1052033 13.1944065,36.0686585 25.4626678,33.1832927 C30.8485861,31.9171138 33.9289127,25.7294309 32.0751331,19.7858943 C31.3506514,17.4638618 29.7723331,14.915122 27.5737616,14.1832114 C26.4775004,13.8185772 25.5078024,14.3924797 24.4636555,14.258252 C23.4679004,14.1303659 22.9151167,13.1854878 21.6792637,13.4396748" id="Fill-259"></path>
                <path d="M71.9503322,19.058687 C64.0294261,19.0872236 56.1066588,19.4708821 48.1871486,19.6421016 C45.7577853,19.6944187 39.5143078,18.4546626 39.5045363,22.8218171 C39.4938343,27.4880772 46.4487649,25.7647846 48.7631976,25.7018984 C56.6189608,25.487874 64.4947322,25.0952317 72.31932,24.2423049 C74.2954751,24.0266951 81.1378016,24.3987276 81.130822,21.333687 C81.1233771,18.0863293 73.5463322,19.058687 71.9503322,19.058687" id="Fill-261"></path>
                <path d="M90.8688416,49.5155732 C71.2785233,50.1148415 51.7179845,50.3235813 32.1434865,51.4671585 C24.8218947,51.8946789 17.5100743,52.2128089 10.1777804,52.2128089 C8.76557633,52.2128089 5.92209061,51.5892317 4.59317633,52.6033374 C0.986123265,55.3539472 5.09338041,57.7150854 7.44410694,57.8635813 C23.5246212,58.8813862 39.8377886,56.3485 55.9089967,55.7767114 C65.3174865,55.4421992 74.7283029,55.343378 84.131209,54.7974837 C86.6964416,54.6484593 89.2621396,54.4756545 91.8231845,54.2489472 C93.2958784,54.1189472 97.1909559,54.4756545 98.381209,53.4932561 C103.578678,49.2032561 92.6211845,49.4616707 90.8688416,49.5155732" id="Fill-263"></path>
                <path d="M0.98570449,60.4386911 C0.801443265,66.230561 0.782365714,71.9214959 1.44682286,77.6816585 C1.7083249,79.9482033 1.82837388,82.5201951 4.15816163,83.0962114 C6.27390857,83.6188537 7.34690449,81.7940976 7.78522286,79.7706423 C8.85496163,74.8295854 7.91364735,67.7181626 7.90108408,62.5852764 C7.89550041,60.0476341 7.89317388,57.207187 5.14321469,56.6332846 C3.04514939,56.1951951 1.06573714,57.9243008 0.98570449,60.4386911" id="Fill-265"></path>
                <path d="M111.633593,74.4019593 C79.9220498,76.3075691 48.2519192,77.9711463 16.5175763,79.5010244 C14.0426131,79.6204553 -5.18337061,79.3815935 1.53797633,87.0272846 C3.61417224,89.3884228 8.96286612,87.7893171 11.6476824,87.6392358 C15.6823518,87.4130569 19.7188824,87.240252 23.7535518,87.0061463 C39.750311,86.0776504 55.7884824,85.8271626 71.7731437,84.7850488 C80.5697559,84.2116748 89.34636,83.3143577 98.0969069,82.1459431 C102.25907,81.5905366 107.425829,81.6481382 111.324164,79.7879756 C113.329633,78.8309431 115.493772,74.1683821 111.633593,74.4019593" id="Fill-267"></path>
                <path d="M93.3998743,45.0205854 C90.9881927,47.7595691 92.2282335,53.1630244 92.4101682,56.5483089 C92.6600376,61.2071707 92.9638824,65.8686748 93.473858,70.5016423 C93.8056212,73.5111951 93.6302008,78.1954228 95.0382171,80.7948943 C96.6867967,83.8393252 100.317115,83.5026992 101.807956,80.5613171 C103.126633,77.9602602 102.459384,72.4870488 102.424952,69.6043252 C102.377956,65.618187 102.160193,61.6257073 101.952666,57.6474959 C101.779107,54.3224553 102.439842,48.9940407 100.835931,46.1483089 C99.2064294,43.2566016 95.6598661,42.4575772 93.3998743,45.0205854" id="Fill-269"></path>
                <path d="M20.9167665,66.2759024 C20.6338604,66.5242764 20.6338604,66.5242764 20.9167665,66.2759024 M26.5492971,65.471065 C31.8049298,66.6764715 23.3065788,73.673748 20.6208318,68.8711463 C20.201591,68.1207398 19.9833624,67.1985854 20.6566604,66.5464715 C21.2713298,65.9509024 21.6575339,67.0051707 22.2382359,66.7219187 C23.2381788,66.233626 25.4823502,65.4256179 26.5492971,65.471065 M25.8243502,59.7262276 C22.2363747,60.0501707 17.3027339,60.3027724 15.5266604,64.4046423 C13.1405706,69.9137886 17.2213053,75.3093171 21.9418359,76.1474472 C26.4846196,76.9543984 33.2673869,74.0848862 33.630791,68.0430569 C33.9239339,63.1717561 29.8608808,59.3526098 25.8243502,59.7262276" id="Fill-271"></path>
                <path d="M55.7809445,62.6397073 C52.0664057,62.707878 44.7652873,61.455439 41.5290833,63.5201138 C38.3268465,65.563122 39.754871,69.2010081 42.6760629,70.071374 C44.6070833,70.6463333 47.7627894,69.7183659 49.7733771,69.6248293 C52.4177118,69.5022276 55.0643731,69.4758049 57.710569,69.4340569 C62.1607567,69.3658862 66.6090833,69.4234878 71.0597363,69.4234878 C75.6053118,69.4234878 80.2285935,69.5651138 84.7662588,69.1840976 C90.507671,68.7021463 90.3531894,63.7996667 84.7383404,63.1866585 C75.1995649,62.1456016 65.3504302,62.4679593 55.7809445,62.6397073" id="Fill-273"></path>
                <path d="M46.2926082,117.546951 C46.2926082,119.876382 48.1049755,117.546951 48.0919469,117.546951 C48.1049755,117.546951 46.2926082,115.21752 46.2926082,117.546951" id="Fill-275"></path>
                <path d="M5.2970449,98.796565 C5.41383673,105.567134 5.49061224,112.344045 5.74420408,119.109329 C5.82470204,121.248516 5.28727347,125.425955 7.56122449,126.516687 C10.0920245,127.730549 10.8788571,124.704614 11.1706041,122.654207 C12.0937714,116.158435 11.188751,108.741565 11.0998776,102.168638 C11.070098,99.9618089 11.4888735,96.8893699 9.29076735,95.789126 C7.49794286,94.8912805 5.26075102,96.5580285 5.2970449,98.796565" id="Fill-277"></path>
                <path d="M102.935439,98.9028902 C103.085268,99.3061016 103.085268,99.3061016 102.935439,98.9028902 M103.147153,98.8336626 C103.268598,98.8917927 103.760427,99.1269553 103.147153,98.8336626 M55.1833984,93.3615081 C46.0685167,93.5242724 36.9480514,93.6479309 27.8392188,94.0928902 C23.9515861,94.2831341 20.0192841,94.4363862 16.1451453,94.8543943 C13.4012351,95.1503293 6.58450041,95.2734593 4.80470449,97.8306545 C1.13204327,103.108866 8.92033714,101.669354 10.5977657,101.240776 C13.6506392,100.460248 16.7667943,100.210289 19.8857412,100.022687 C26.6531535,99.6157764 33.4233576,99.3980528 40.1991453,99.242687 C58.5736188,98.8209797 76.9615861,98.8849228 95.339782,98.7903293 C97.1191127,98.7813455 100.334843,97.9654106 101.978304,98.7861016 C103.624558,99.6089065 103.531496,101.631305 103.702729,103.97976 C103.930264,107.103988 102.123015,113.058093 103.499856,115.686102 C105.636076,119.762606 108.741994,116.301224 109.217072,113.329191 C109.872688,109.222565 108.833194,104.291549 107.815104,100.366183 C106.37917,94.8279715 104.385333,94.6076057 99.6876024,94.1748008 C94.1993167,93.6690691 88.7305739,93.362565 83.2241412,93.304435 C73.8793984,93.2066707 64.5276759,93.1961016 55.1833984,93.3615081" id="Fill-279"></path>
                <path d="M91.2337347,121.349346 C71.4642735,123.967313 51.1322571,122.424752 31.2571714,122.517232 C26.4240367,122.539955 21.5867143,122.583817 16.7582327,122.851215 C14.2078898,122.991785 8.16263265,122.190118 6.41540816,124.433411 C2.7325102,129.163085 9.3668449,129.851134 11.7887633,129.655077 C16.6856449,129.258207 21.5941592,129.076947 26.5036041,129.033614 C43.7962408,128.881419 61.1865918,129.801459 78.4652694,128.828573 C85.7040367,128.421134 92.7813429,127.009102 99.886102,125.431134 C101.460233,125.081297 112.235327,122.745524 106.090959,119.945768 C102.45971,118.291175 95.0483143,120.8415 91.2337347,121.349346" id="Fill-281"></path>
                <path d="M33.512138,112.691768 C33.3744073,112.893638 33.3744073,112.893638 33.512138,112.691768 M33.3795257,112.65689 C33.3325298,112.801687 33.1873543,113.159451 33.3795257,112.65689 M32.1325053,110.822622 C32.1613543,110.864898 32.2790767,111.036646 32.1325053,110.822622 M32.0845788,110.808882 C32.5605869,111.456768 32.8811829,112.179695 33.0459012,112.977134 C28.9498114,114.242256 27.3714931,110.463801 32.0845788,110.808882 M31.8254033,110.63185 C31.8267992,110.632907 32.4028482,110.909289 31.8254033,110.63185 M25.0966114,105.002215 C22.4457624,108.766931 20.2574278,113.154167 23.5624971,117.454207 C26.5176563,121.29872 32.463338,121.794939 36.2137053,119.228232 C40.077142,116.583313 39.7435176,111.015508 37.0484645,107.381321 C35.313338,105.041321 33.9067176,105.106321 31.3889461,104.724248 C29.6747584,104.464248 26.5511584,102.944411 25.0966114,105.002215" id="Fill-284"></path>
                <path d="M52.5001641,111.969793 C52.5001641,116.98272 71.4813967,114.825037 74.8581233,114.819752 C77.6867192,114.814996 94.7904416,116.594305 93.5629641,111.435524 C92.5541804,107.196785 75.7068416,109.303736 72.1188661,109.297394 C69.0176008,109.292638 52.5001641,106.864386 52.5001641,111.969793" id="Fill-286"></path>
            </g>
        </g>
    </g>
</svg>