<?xml version="1.0" encoding="UTF-8"?>
<svg width="136px" height="171px" viewBox="0 0 136 171" version="1.1" xmlns="http://www.w3.org/2000/svg" xmlns:xlink="http://www.w3.org/1999/xlink">
    <!-- Generator: Sketch 51.3 (57544) - http://www.bohemiancoding.com/sketch -->
    <title>Cells</title>
    <desc>Created with Sketch.</desc>
    <defs></defs>
    <g id="Page-1" stroke="none" stroke-width="1" fill="none" fill-rule="evenodd" opacity="0.5">
        <g id="7---notes-empty" transform="translate(-652.000000, -355.000000)" fill="#8795C6">
            <g id="Cells" transform="translate(652.000000, 355.000000)">
                <path d="M1.70735573,2.3837716 C0.264127117,3.88536159 0.824720048,9.2220337 0.794475292,11.1969702 C0.748043203,14.2715068 0.931641648,17.3185644 1.1782855,20.3820207 C1.3435667,22.4331891 2.27519036,42.0074872 4.86771967,40.5041244 C6.32926553,39.6571532 5.41297724,33.9947229 5.41042134,32.2037178 C5.40445759,28.2219338 5.24556613,24.2499003 4.99082861,20.2769803 C4.75398235,16.5886002 4.60531447,12.9432113 4.74162886,9.24773979 C4.7748555,8.34581073 5.58464817,-1.66405054 1.70735573,2.3837716" id="Fill-5"></path>
                <path d="M67.0421667,0.0173374298 C54.124053,0.120360484 41.2112654,0.758925793 28.2993654,1.15014696 C22.0861903,1.33843047 15.8770098,1.57778145 9.67049219,1.92281987 C7.55564262,2.04049706 3.01970085,1.36196591 1.25769607,2.49122292 C-2.653777,4.99841328 3.65437764,5.58457893 5.3360492,5.52329798 C30.8886691,4.5947583 56.4501656,3.3718036 82.0245332,3.31407516 C94.5698297,3.28609907 107.108913,3.64401537 119.655541,3.56363963 C124.451567,3.53299915 129.762435,1.46232458 130.973647,7.05665404 C132.340643,13.3694805 130.769929,20.3981395 130.342521,26.7416065 C130.057139,30.9762092 130.158776,35.1228872 130.349179,39.3539374 C130.471232,42.0645095 130.15345,45.1187878 130.631454,47.7787365 C131.091706,50.3401028 132.929162,51.8761232 134.613497,49.00702 C135.619659,47.2924854 135.119019,43.0592149 135.186037,41.0729126 C135.276135,38.3978657 135.191363,35.723707 135.191363,33.048216 C135.190475,26.5177978 136.110535,20.0131353 135.988925,13.4840492 C135.910811,9.27387003 135.687565,1.64128273 130.38868,0.629702911 C124.553648,-0.484455894 117.381356,0.635919819 111.410068,0.567533826 C96.6141103,0.398345104 81.8430068,-0.0985635061 67.0421667,0.0173374298" id="Fill-7"></path>
                <path d="M31.5467657,40.6672775 C26.6708628,40.6672775 21.7945157,40.6967967 16.919057,40.7781981 C12.7375538,40.8479707 6.16319289,39.9691039 2.27135604,41.4777135 C-0.392952813,42.5104379 -1.10068068,45.5097666 2.27135604,46.3085737 C5.94905301,47.1802844 11.4918106,45.7553126 15.3396644,45.6868817 C34.6344673,45.3433857 54.1149767,44.8956779 73.382679,46.1260915 C91.4370701,47.2786817 109.839327,48.3963856 127.920375,47.1798371 C129.441568,47.0774145 137.200362,46.7661212 133.659946,43.8334343 C131.594518,42.1217685 123.22307,43.2475231 120.538769,43.1656745 C111.070854,42.8776387 101.593609,42.8136805 92.1288041,42.4518468 C82.7875071,42.0944857 73.4875276,41.0353729 64.1431207,40.7732783 C53.2868507,40.4686939 42.4065899,40.6672775 31.5467657,40.6672775" id="Fill-9"></path>
                <path d="M26.6936857,13.0513099 C34.3670071,13.3787079 41.958688,24.2546225 34.1947544,29.5109353 C26.9112445,34.442914 13.2606631,29.037784 17.3108455,19.4740873 C16.7285953,20.8567746 18.0469568,17.9719085 18.0635541,17.9526498 C18.8337571,17.0658741 20.2167134,16.0841179 21.1658978,15.3851145 C22.2523461,14.585003 23.3836519,13.704355 24.6934904,13.3034239 C25.5534084,13.0403675 25.4183874,14.0304399 26.6936857,13.0513099 M22.9566086,9.12866234 C19.3653183,10.4990941 17.7262258,12.0450427 15.258167,14.8423693 C13.5504425,16.7783066 11.3735087,17.7968294 11.3927974,20.412949 C11.3968346,20.9920232 12.1580661,21.6284358 12.2894986,22.1860628 C12.4711714,22.9568486 12.2607898,23.9442948 12.4047823,24.7632274 C13.8904622,33.2134209 24.2067867,36.0623958 31.7580958,34.4669874 C38.3359974,33.0772969 43.2555179,26.9061958 41.7317091,20.1958509 C40.1975831,13.440861 29.9480963,6.45607964 22.9566086,9.12866234" id="face"></path>
                <path d="M19.9371728,21.0176033 C19.9371728,24.3239752 24.921466,24.3239752 24.921466,21.0176033 C24.921466,17.7488417 19.9371728,17.6083983 19.9371728,21.0176033" id="Fill-13"></path>
                <path d="M26.3455497,20.3018773 C26.3455497,22.6637721 29.9057592,22.6637721 29.9057592,20.3018773 C29.9057592,17.9669438 26.3455497,17.8672298 26.3455497,20.3018773" id="Fill-15"></path>
                <path d="M27.2723462,25.729737 C26.0626062,26.236054 24.5281853,25.1861423 23.5350439,25.8779043 C21.7762113,27.1038236 23.5393845,28.2131909 24.4821744,28.7058236 C28.726899,30.9236144 29.4821727,24.8081742 27.2723462,25.729737" id="Fill-17"></path>
                <path d="M93.2452715,18.7241085 C93.1161643,18.7806658 92.6556373,18.9813527 93.2452715,18.7241085 M74.3512432,15.8807392 C71.10404,16.6355958 68.3621743,19.7581025 64.8341295,19.3403087 C62.1304192,19.0201218 60.2998467,16.3336532 57.6307424,15.9432258 C54.2162766,15.4433329 44.9236587,23.4635135 49.8093263,24.8395874 C52.6598907,25.6427914 54.241122,20.2789763 56.7593793,19.9939096 C58.7514468,19.7685929 61.4604811,22.2840215 63.5248665,22.6420653 C67.3759012,23.3102616 70.0206038,21.1259665 73.4013509,19.717509 C77.0749186,18.1868148 79.1650366,19.5651693 82.359887,21.2664474 C84.8816936,22.6092256 87.2566463,23.4835822 90.1422603,22.9294125 C92.8504074,22.4099069 96.2524505,19.542364 98.9783442,19.8365528 C101.648336,20.1248123 103.553888,22.9937235 106.300191,23.2600899 C107.43243,23.3695555 109.117924,23.7668244 108.92759,21.9679395 C108.775412,20.5275545 107.21459,20.7715716 106.238077,20.2479611 C103.726919,18.901534 101.378142,16.516552 98.3474489,16.7199756 C96.0678848,16.8732274 93.9924078,18.5225094 91.8916417,19.311574 C85.0112446,21.8954186 81.1433504,14.3121882 74.3512432,15.8807392" id="Fill-19"></path>
                <path d="M80.8552462,60.571778 C67.5442858,60.6866026 54.188383,60.8724097 40.9148005,61.8753503 C37.7679424,62.1129328 5.63546023,64.9643406 5.69642171,65.1697722 C5.8090002,65.5497372 9.94192124,66.1301233 9.91611274,66.2198953 C9.63755884,65.5706144 9.00080066,65.3017161 8.00628316,65.4140354 C38.4812362,65.4140354 68.8596298,62.8494804 99.3746305,63.3108665 C107.041982,63.4265261 114.738257,63.378091 122.400269,63.605235 C124.313214,63.6620209 129.052635,64.9505616 130.554868,64.1388562 C134.49734,62.0081293 127.335034,61.7621959 126.148732,61.6728415 C111.131741,60.5438026 95.9145105,60.4306482 80.8552462,60.571778" id="Fill-21"></path>
                <path d="M1.60445697,66.5070586 C-0.317848507,68.5085908 1.45228878,75.7089371 1.52794302,78.4150836 C1.6375557,82.3276758 1.54728643,86.2679 1.87784388,90.1702417 C2.25525538,94.627896 2.84071603,99.3770227 3.96693257,103.701865 C4.58721137,106.084451 6.76442005,109.870917 7.62713631,105.541617 C8.24311657,102.449515 7.30775505,98.3475104 6.98235585,95.1974703 C6.54691411,90.9836009 6.44159997,86.8249954 6.42526553,82.5906249 C6.41065051,78.9008708 6.34230378,75.1959637 6.05086301,71.5177972 C5.89955453,69.6080743 4.9745095,63.025881 1.60445697,66.5070586" id="Fill-23"></path>
                <path d="M51.469336,103.328169 C42.0288834,103.494856 32.5679739,103.723651 23.1435311,104.330118 C19.2807192,104.579007 15.4210203,104.949372 11.5724393,105.369514 C10.7870691,105.454913 2.09463052,105.817971 5.97878885,109.11746 C7.73186328,110.60714 14.9433942,108.547528 17.3252985,108.33289 C21.3313093,107.971659 25.3364306,107.736927 29.3540041,107.562019 C38.6628204,107.155577 48.0000986,106.796629 57.3182541,106.96286 C74.335795,107.26655 91.2439355,107.402183 108.266368,107.011724 C110.684739,106.956466 129.631907,107.477078 130.275413,104.88909 C130.793953,102.803448 124.018245,103.760186 122.782821,103.79809 C118.25071,103.937376 113.718154,103.904952 109.184264,103.881205 C89.9782709,103.779823 70.6606536,102.994339 51.469336,103.328169" id="Fill-25"></path>
                <path d="M126.744921,63.5854999 C127.044639,71.9481255 128.476082,80.3010328 128.933663,88.6888377 C129.142665,92.5231619 129.389021,96.3539521 129.577568,100.189601 C129.63849,101.426922 129.137329,104.408241 130.607904,105.119888 C132.624998,106.096139 132.896701,104.12906 133.274239,102.798532 C134.365053,98.9553731 133.627319,93.9632421 133.528155,90.0158319 C133.432547,86.1929931 133.425877,82.3635281 133.142612,78.5477572 C132.852232,74.6493804 132.06336,70.8247746 131.697384,66.9400918 C131.542633,65.2972518 132.083816,62.563308 130.330865,61.5437665 C128.815821,60.6624904 126.679552,61.7730308 126.744921,63.5854999" id="Fill-27"></path>
                <path d="M34.3747963,77.542661 C34.4104831,77.5702702 34.4457294,77.5983247 34.4809757,77.6263792 C34.4457294,77.5983247 34.4100425,77.5707155 34.3747963,77.542661 M26.426758,75.0449198 C29.3905303,75.9021407 31.8247272,75.5824084 34.6558854,77.7666517 C37.0028477,79.5777255 39.4101693,82.2273172 40.1886717,85.1556727 C41.9871136,91.9212604 35.8899461,95.6289075 30.1738791,95.7019383 C24.3190298,95.776305 15.6528484,94.4016345 15.9528824,86.8042086 C16.1828645,80.9670913 20.3930338,75.2715824 26.426758,75.0449198 M26.6355922,71.2214922 C18.9501388,71.6089115 12.750757,80.3463298 12.8172844,87.701062 C12.8974697,96.6148228 22.8743725,98.9112841 29.9615202,98.9731821 C37.9602251,99.0426504 45.9364604,93.4513439 43.7930454,84.3452094 C42.0756699,77.049258 34.0262986,70.832737 26.6355922,71.2214922" id="face"></path>
                <path d="M18.513089,82.9616257 C18.513089,85.3234371 22.0732984,85.3234371 22.0732984,82.9616257 C22.0732984,80.6268935 18.513089,80.5266159 18.513089,82.9616257" id="Fill-31"></path>
                <path d="M27.0575916,81.5376314 C27.0575916,83.8993236 31.3298429,83.8993236 31.3298429,81.5376314 C31.3298429,79.2028053 27.0575916,79.1024775 27.0575916,81.5376314" id="Fill-33"></path>
                <path d="M22.5181741,87.9024317 C20.0127144,90.3853941 28.814393,94.7382684 30.890108,91.2839569 C32.5950972,88.4470284 28.8830297,89.3876167 27.5671279,89.2342458 C26.1371228,89.0670108 23.6854359,86.7469509 22.5181741,87.9024317" id="Fill-35"></path>
                <path d="M94.1649557,82.0326083 C93.9181391,82.139193 93.9181391,82.139193 94.1649557,82.0326083 M60.3595811,77.7462488 C57.7648772,78.2470132 49.2497055,81.2033608 49.1347927,84.3714996 C48.9246409,90.1298308 57.2640899,84.2318369 59.0749724,83.4742584 C63.9943128,81.4169896 66.5791798,85.6137628 71.5208768,85.8352018 C75.8128917,86.0276974 79.759274,82.2476154 83.8022368,82.694628 C88.0383603,83.1627738 90.0759384,87.8005872 94.9662153,85.3381127 C97.5533179,84.0356658 97.4880367,82.0275547 94.5839179,81.8382749 C92.8284797,81.7238801 91.6225661,82.4704325 89.792457,81.6930992 C86.9303685,80.4784009 85.7776636,78.5001519 82.3526366,78.814393 C79.7682167,79.0514521 77.4324019,80.5505294 74.9096862,81.1307729 C69.1331947,82.4589471 65.9290506,76.6725915 60.3595811,77.7462488" id="Fill-37"></path>
                <path d="M113.58411,84.8631702 C113.40605,84.9389207 113.40605,84.9389207 113.58411,84.8631702 M114.237442,82.5099456 C114.266002,82.5225707 114.461466,82.7967153 114.237442,82.5099456 M111.268888,80.7135773 C111.157322,80.8006001 111.157322,80.8006001 111.268888,80.7135773 M111.333597,80.6914834 C111.909278,81.0400257 116.53749,84.2427377 113.175778,84.9970862 C111.469261,85.3798966 110.057279,81.9048436 111.333597,80.6914834 M109.801123,77.1433853 C102.387326,80.5643308 110.365202,92.8061485 116.183602,87.8323182 C118.631811,85.7392605 118.954014,81.5089572 116.572299,79.3284257 C115.145144,78.0217301 111.738359,76.2479065 109.801123,77.1433853" id="point"></path>
                <path d="M40.4490995,123.924443 C31.236273,123.926936 21.9425621,123.745788 12.7421794,124.257241 C11.1938202,124.343245 5.295478,124.067368 4.49774411,125.583031 C3.03826885,128.3551 9.10726829,126.979037 9.98899755,126.895942 C28.3079897,125.178771 47.4438258,126.166778 65.8232591,126.656211 C80.8548765,127.056316 95.806054,127.304772 110.819895,128.030197 C114.766344,128.220901 118.709238,128.431548 122.653021,128.654244 C123.938284,128.726953 127.173217,129.524671 127.444313,127.602254 C127.694966,125.823178 123.659633,126.224945 122.651688,126.175087 C114.63524,125.779968 106.624125,125.366152 98.6098997,124.943611 C79.3198499,123.925274 59.7698143,123.921119 40.4490995,123.924443" id="Fill-41"></path>
                <path d="M4.2594641,127.680896 C2.43518685,129.374525 3.29031681,135.841948 3.23943305,137.979743 C3.15038646,141.718468 2.96145692,145.454118 2.87665064,149.191964 C2.78854634,153.098514 2.9110443,157.023077 3.15839594,160.923916 C3.26204805,162.56175 4.70139904,170.477655 6.96761122,165.947691 C7.98010394,163.923243 6.94311163,158.284842 6.95865945,155.991084 C6.98645706,151.81654 7.22721266,147.65957 7.44959356,143.490738 C7.64087883,139.907098 7.64794602,136.319943 7.81567399,132.735423 C7.86891349,131.592718 8.01355531,124.164034 4.2594641,127.680896" id="Fill-43"></path>
                <path d="M129.168099,160.929441 C120.202079,161.878051 111.092062,161.429626 102.091821,162.130434 C94.3351071,162.734137 86.5855042,162.981024 78.8087908,163.150958 C61.198966,163.5348 43.5593641,163.909022 26.0006493,165.423777 C21.9989618,165.768685 18.0021631,166.13512 13.9898092,166.320171 C11.9831879,166.412696 3.56293346,165.470039 2.9358365,167.653539 C1.8678606,171.372405 10.8725463,169.900707 12.8147247,169.842536 C17.0857394,169.715199 21.3367545,169.3964 25.5957695,169.061569 C43.4993655,167.653539 61.4714043,167.232596 79.4132216,166.647215 C89.1712236,166.329331 98.8612272,165.592337 108.597452,164.92176 C113.450231,164.587845 118.316344,164.576852 123.168679,164.253014 C124.438428,164.168276 128.932548,164.335462 129.845861,163.280585 C130.473403,162.556416 130.632066,160.788363 129.168099,160.929441" id="Fill-45"></path>
                <path d="M126.033803,127.928419 C126.349498,136.469874 126.848131,145.003836 127.146034,153.545291 C127.235906,156.113722 126.433896,160.717239 127.912004,162.982413 C130.288381,166.624587 132.143316,162.769957 132.578536,160.500375 C133.952173,153.337242 132.475434,145.424341 132.091764,138.21713 C131.945778,135.467538 132.828081,129.347734 131.454901,126.886854 C130.146958,124.54278 125.916558,124.778157 126.033803,127.928419" id="Fill-47"></path>
                <path d="M110.552889,140.472812 C113.945471,141.392547 114.441037,148.77455 110.613024,149.320602 C104.91512,150.13332 107.406993,141.994739 110.552889,140.472812 M109.60258,137.537291 C108.567555,137.504835 106.178833,137.219309 105.541051,138.06229 C105.007297,138.76799 105.546757,140.256145 105.484427,140.928074 C105.260128,143.329824 103.309031,144.716663 104.181209,147.552184 C104.773341,149.476742 106.358799,151.285072 108.291022,151.953492 C118.487642,155.480678 118.363421,135.763171 109.60258,137.537291" id="hola-:)"></path>
                <path d="M17.0349568,138.420789 C17.0089457,138.453218 16.9829346,138.485647 16.9573719,138.518076 C16.9829346,138.485647 17.0089457,138.453218 17.0349568,138.420789 M25.2172488,134.1599 C25.1764382,133.818959 25.1356277,133.477579 25.0948171,133.1362 C30.743267,135.745847 35.2378096,140.600096 33.3623179,147.115667 C31.9312577,152.086485 26.7608744,153.849476 21.9438835,152.622438 C16.6116034,151.263494 14.0634103,146.961849 15.5011975,141.679451 C16.1644811,139.242466 18.2014211,135.96759 20.8343746,135.184039 C22.0600366,134.819433 24.770575,135.748914 25.2172488,134.1599 M21.9142847,132.096285 C20.4854668,132.190504 19.0947686,132.773347 17.9287528,133.570045 C19.020323,132.66642 20.475152,132.128276 21.9142847,132.096285 M21.9550952,128.885828 C18.4256549,128.991441 16.1129073,131.082664 14.0194604,133.594148 C13.3624553,134.38252 11.1411952,136.472428 11.4161058,137.534693 C11.6336126,138.374337 12.202718,139.602251 13.4010236,138.666197 C7.12471903,150.908967 23.3386179,161.35106 33.236747,152.837608 C42.4742833,144.892538 33.3093988,128.513335 21.9550952,128.885828" id="Fill-51"></path>
                <path d="M18.513089,140.628272 C18.513089,142.052356 21.3612565,142.052356 21.3612565,140.628272 C21.3612565,139.204188 18.513089,139.204188 18.513089,140.628272" id="Fill-53"></path>
                <path d="M22.7853403,140.984293 C22.7853403,142.883072 25.6335079,142.883072 25.6335079,140.984293 C25.6335079,139.085515 22.7853403,139.085515 22.7853403,140.984293" id="Fill-55"></path>
                <path d="M24.5317481,146.68606 C23.339613,146.784343 18.9759898,146.373141 18.2100833,147.4331 C16.9300929,149.203958 18.9729453,149.265661 19.9763221,149.456938 C20.8801005,149.629264 24.8087966,149.531863 25.3624587,148.717391 C25.8517517,147.997677 25.7373659,146.582047 24.5317481,146.68606" id="Fill-57"></path>
                <path d="M78.5635643,142.286143 C78.3551297,142.37597 78.3551297,142.37597 78.5635643,142.286143 M61.787019,141.006916 C59.0539157,141.216512 56.7390091,142.855507 54.1258332,143.509631 C51.3365279,144.207978 50.1292893,142.923684 47.5931146,142.082996 C44.9547141,141.208681 43.0779183,141.554169 40.9572851,143.432703 C39.7557995,144.497266 37.1196116,146.947467 37.8705955,148.838438 C39.5902909,153.166712 43.4828389,146.124745 45.3136109,145.797222 C48.1697392,145.286361 50.7107818,147.889958 54.0041358,147.145086 C56.9885995,146.470694 59.6367358,144.334196 62.7539604,144.311163 C65.3604984,144.291816 67.8170165,145.778796 70.3903642,146.138565 C74.3187576,146.688121 76.8983008,145.233847 80.5297524,144.154082 C83.6788396,143.218039 85.887095,144.452583 88.8489894,145.49089 C90.2027075,145.96536 94.7196739,147.690497 93.8881485,144.562218 C93.6531618,143.67869 87.7006081,142.098658 86.7779202,141.794629 C83.5235094,140.722695 81.4626186,141.140505 78.3626529,142.372745 C75.7773567,143.400918 73.6027341,143.901645 70.8306877,143.335966 C67.7767457,142.712706 64.9993889,140.752637 61.787019,141.006916" id="Fill-59"></path>
            </g>
        </g>
    </g>
</svg>