<?xml version="1.0" encoding="UTF-8"?>
<svg width="19px" height="15px" viewBox="0 0 19 15" version="1.1" xmlns="http://www.w3.org/2000/svg" xmlns:xlink="http://www.w3.org/1999/xlink">
    <!-- Generator: Sketch 51.3 (57544) - http://www.bohemiancoding.com/sketch -->
    <title>noun_Folder_1980713</title>
    <desc>Created with Sketch.</desc>
    <defs></defs>
    <g id="Symbols" stroke="none" stroke-width="1" fill="none" fill-rule="evenodd">
        <g id="folder" transform="translate(-45.000000, -23.000000)" fill="#9DB1F7" fill-rule="nonzero">
            <g id="Group">
                <g id="noun_Folder_1980713" transform="translate(45.000000, 23.000000)">
                    <g id="Group">
                        <path d="M17.5609756,0 L13.6189024,0 C13.2484756,0 12.8871951,0.150914634 12.6310976,0.420731707 L11.9359756,1.13871951 C11.5060976,1.58231707 10.9070122,1.82926829 10.2896341,1.82926829 L1.37195122,1.82926829 C0.617378049,1.82926829 0,2.46493902 0,3.2195122 L0,4.57317073 L18.9329268,4.57317073 L18.9329268,1.37652439 C18.9329268,0.62195122 18.320122,0 17.5609756,0 Z" id="Shape"></path>
                        <path d="M0,13.6234756 C0,14.3780488 0.612804878,15 1.37195122,15 L17.5609756,15 C18.3155488,15 18.9329268,14.3780488 18.9329268,13.6234756 L18.9329268,5.48780488 L0,5.48780488 L0,13.6234756 Z" id="Shape"></path>
                    </g>
                </g>
            </g>
        </g>
    </g>
</svg>