<?xml version="1.0" encoding="UTF-8"?>
<svg width="20px" height="22px" viewBox="0 0 20 22" version="1.1" xmlns="http://www.w3.org/2000/svg" xmlns:xlink="http://www.w3.org/1999/xlink">
    <!-- Generator: Sketch 51.3 (57544) - http://www.bohemiancoding.com/sketch -->
    <title>icon-notifications</title>
    <desc>Created with Sketch.</desc>
    <defs></defs>
    <g id="Symbols" stroke="none" stroke-width="1" fill="none" fill-rule="evenodd">
        <g id="Component/Navigation/Top-Bar" transform="translate(-1194.000000, -24.000000)" fill="#C0C3CC" fill-rule="nonzero">
            <g id="Group-2">
                <g id="Group" transform="translate(1193.153846, 15.250000)">
                    <g id="icon-notifications" transform="translate(0.846154, 7.000000)">
                        <path d="M19.4895687,19.7992897 C17.1351589,18.7827721 17.0455974,14.4195437 17.0438597,14.3094506 L17.0438597,11.3822425 C17.0438597,8.56495434 15.2431455,6.14238832 12.6842719,5.11088472 C12.6787694,3.66243964 11.4448193,2.48571429 9.92864551,2.48571429 C8.41243555,2.48571429 7.17852165,3.66250886 7.17298288,5.1108155 C4.61421795,6.1423191 2.81346748,8.56488512 2.81346748,11.3821733 L2.81346748,14.3093814 C2.81180223,14.4194745 2.72216835,18.7827028 0.367686126,19.7992205 C0.0994723039,19.9150587 -0.0479385054,20.1941849 0.0140739495,20.4692618 C0.0760140022,20.7443732 0.330471413,20.9408518 0.624822418,20.9408518 L6.59365695,20.9408518 C6.71601661,21.5843821 7.03429653,22.1830584 7.52109249,22.6679731 C8.16764383,23.311988 9.02267721,23.6666668 9.9285369,23.6666668 C10.834469,23.6666668 11.6895024,23.311988 12.3359813,22.6679731 C12.8228497,22.1830238 13.1411296,21.5843129 13.2634169,20.9408518 L19.2322514,20.9408518 C19.5266024,20.9408518 19.7810236,20.7444078 19.8430361,20.4692618 C19.9051209,20.1941849 19.7577825,19.9150933 19.4895687,19.7992897 Z M16.3881133,17.7090448 C16.6356201,18.4264319 16.9860828,19.1468647 17.4830513,19.7463717 L2.37416734,19.7463717 C2.87106341,19.146934 3.22152609,18.4265358 3.46903289,17.7090448 L16.3881133,17.7090448 Z M9.92864551,3.68026357 C10.614475,3.68026357 11.194344,4.12084338 11.3757838,4.72138863 C10.9083554,4.6287042 10.4243469,4.57983549 9.92864551,4.57983549 C9.43294408,4.57983549 8.9489356,4.62866959 8.48150722,4.72138863 C8.66298325,4.12087799 9.24285219,3.68026357 9.92864551,3.68026357 Z M4.06294786,14.31305 L4.06294786,11.3821387 C4.06294786,8.29001592 6.69425976,5.77438477 9.92864551,5.77438477 C13.1630312,5.77438477 15.7943432,8.29001592 15.7943432,11.3821387 L15.7943432,14.31793 C15.7951758,14.4077764 15.809801,15.3520293 16.0587197,16.5144263 L3.79842654,16.5144263 C4.04748999,15.3509218 4.06218763,14.4050077 4.06294786,14.31305 Z M9.92864551,22.4722214 C8.97507278,22.4722214 8.14284609,21.8149164 7.8757183,20.9408864 L11.9815003,20.9408864 C11.7143725,21.8149164 10.8822906,22.4722214 9.92864551,22.4722214 Z" id="Shape"></path>
                    </g>
                </g>
            </g>
        </g>
    </g>
</svg>