<?xml version="1.0" encoding="UTF-8"?>
<svg width="24px" height="24px" viewBox="0 0 24 24" version="1.1" xmlns="http://www.w3.org/2000/svg" xmlns:xlink="http://www.w3.org/1999/xlink">
    <!-- Generator: Sketch 51.3 (57544) - http://www.bohemiancoding.com/sketch -->
    <title>icon-analytics</title>
    <desc>Created with Sketch.</desc>
    <defs>
        <path d="M13.953125,2 L10.046875,2 C9.72328125,2 9.4609375,2.31231399 9.4609375,2.69754464 L9.4609375,21.2987351 C9.4609375,21.6839658 9.72328125,21.9962798 10.046875,21.9962798 L13.953125,21.9962798 C14.2767188,21.9962798 14.5390625,21.6839658 14.5390625,21.2987351 L14.5390625,2.69754464 C14.5390625,2.31231399 14.2767188,2 13.953125,2 Z M13.3671875,20.6011905 L10.6328125,20.6011905 L10.6328125,13.625744 L13.3671875,13.625744 L13.3671875,20.6011905 Z M13.3671875,12.2306548 L10.6328125,12.2306548 L10.6328125,3.39508929 L13.3671875,3.39508929 L13.3671875,12.2306548 Z M6.4921875,10.3705357 C6.81578125,10.3705357 7.078125,10.6828497 7.078125,11.0680804 L7.078125,21.2987351 C7.078125,21.6839658 6.81578125,21.9962798 6.4921875,21.9962798 L2.5859375,21.9962798 C2.26234375,21.9962798 2,21.6839658 2,21.2987351 L2,11.0680804 C2,10.6828497 2.26234375,10.3705357 2.5859375,10.3705357 L6.4921875,10.3705357 Z M5.90625,20.6011905 L5.90625,18.2760417 L3.171875,18.2760417 L3.171875,20.6011905 L5.90625,20.6011905 Z M5.90625,16.8809524 L5.90625,11.765625 L3.171875,11.765625 L3.171875,16.8809524 L5.90625,16.8809524 Z M21.4140625,10.3705357 C21.7376563,10.3705357 22,10.6828497 22,11.0680804 L22,21.2987351 C22,21.6839658 21.7376563,21.9962798 21.4140625,21.9962798 L17.5078125,21.9962798 C17.1842187,21.9962798 16.921875,21.6839658 16.921875,21.2987351 L16.921875,11.0680804 C16.921875,10.6828497 17.1842187,10.3705357 17.5078125,10.3705357 L21.4140625,10.3705357 Z M20.828125,20.6011905 L20.828125,18.2760417 L18.09375,18.2760417 L18.09375,20.6011905 L20.828125,20.6011905 Z M20.828125,16.8809524 L20.828125,11.765625 L18.09375,11.765625 L18.09375,16.8809524 L20.828125,16.8809524 Z" id="path-1"></path>
    </defs>
    <g id="icon-analytics" stroke="none" stroke-width="1" fill="none" fill-rule="evenodd">
        <mask id="mask-2" fill="white">
            <use xlink:href="#path-1"></use>
        </mask>
        <use id="Combined-Shape" fill="#BFC5D2" xlink:href="#path-1"></use>
    </g>
</svg>