<?xml version="1.0" encoding="UTF-8"?>
<svg width="19px" height="16px" viewBox="0 0 19 16" version="1.1" xmlns="http://www.w3.org/2000/svg" xmlns:xlink="http://www.w3.org/1999/xlink">
    <!-- Generator: Sketch 51.3 (57544) - http://www.bohemiancoding.com/sketch -->
    <title>Shape</title>
    <desc>Created with Sketch.</desc>
    <defs>
        <path d="M5.42724712,5.6476022 C6.99213836,5.6476022 8.08217714,5.6476022 8.08217714,5.6476022 L8.08217714,7.06692718 L5.42724712,7.06692718 C4.62660508,7.06692718 4.04501495,7.43085037 4.04501495,8.44984932 L4.04501495,15.4008779 C4.04501495,16.2015199 4.62660508,16.7871904 5.42724712,16.7871904 L14.3434879,16.7871904 C15.1077372,16.7871904 15.7279776,16.2015199 15.7279776,15.4008779 C15.7279776,14.9883184 15.7279776,9.25049135 15.7279776,8.44984932 C15.7279776,7.64920729 15.1077372,7.06692718 14.3434879,7.06692718 L11.65529,7.06692718 L11.65529,5.6476022 C11.65529,5.6476022 12.7785967,5.6476022 14.3434879,5.6476022 C15.9083792,5.6476022 17.1457351,6.88495807 17.1457351,8.44984932 C17.1457351,10.9552683 17.1472975,15.4008779 17.1472975,15.4008779 C17.1472975,16.9657691 15.9083792,18.203125 14.3434879,18.203125 C10.9084755,18.203125 8.86225955,18.203125 5.42724712,18.203125 C3.86235587,18.203125 2.625,16.9657691 2.625,15.4008779 C2.625,14.9148338 2.625,10.247675 2.625,8.44984932 C2.625,6.88495807 3.86235587,5.6476022 5.42724712,5.6476022 Z M8.11284631,4.27238507 L9.14062303,3.28232309 C9.16491911,8.28010088 9.17706714,11.1186561 9.17706714,11.7979887 C9.17706714,12.8169877 10.6446734,12.8169877 10.6446734,11.7979887 C10.6446734,11.1186561 10.6325254,8.28389593 10.6082293,3.29370822 L11.6588416,4.27952705 C11.9295155,4.53350795 12.3548323,4.51997558 12.6088132,4.24930165 C12.610467,4.24753911 12.6121113,4.24576765 12.6137461,4.24398737 L12.6137461,4.24398737 C12.8656762,3.96962611 12.8474922,3.54298264 12.5731309,3.29105251 C12.5719266,3.28994662 12.5707182,3.28884511 12.5695058,3.28774801 L9.86873359,0.84375 L7.20280459,3.28419881 C6.92651078,3.53712412 6.90756686,3.96614098 7.16049216,4.24243479 C7.16096659,4.24295305 7.16144183,4.24347058 7.16191787,4.24398737 L7.16191787,4.24398737 C7.41086813,4.51424762 7.83177142,4.53152278 8.10203168,4.28257251 C8.10567436,4.27921706 8.10927946,4.27582103 8.11284631,4.27238507 Z" id="path-1"></path>
    </defs>
    <g id="Symbols" stroke="none" stroke-width="1" fill="none" fill-rule="evenodd">
        <g id="Icons/Log_out" transform="translate(-5.000000, -6.000000)">
            <g id="ic_logout" transform="translate(12.000000, 12.000000) scale(-1, 1) rotate(-90.000000) translate(-12.000000, -12.000000) ">
                <mask id="mask-2" fill="white">
                    <use xlink:href="#path-1"></use>
                </mask>
                <use id="Shape" fill="#BFC5D2" xlink:href="#path-1"></use>
            </g>
        </g>
    </g>
</svg>