<?xml version="1.0" encoding="UTF-8"?>
<svg width="83px" height="32px" viewBox="0 0 83 32" version="1.1" xmlns="http://www.w3.org/2000/svg" xmlns:xlink="http://www.w3.org/1999/xlink">
    <!-- Generator: Sketch 51.3 (57544) - http://www.bohemiancoding.com/sketch -->
    <title>Group 3</title>
    <desc>Created with Sketch.</desc>
    <defs>
        <polygon id="path-1" points="0.124233153 0.12658196 0.90828692 0.12658196 0.90828692 0.910758124 0.124233153 0.910758124"></polygon>
        <polygon id="path-3" points="0.0344300616 0.0259777409 0.818475764 0.0259777409 0.818475764 0.810126582 0.0344300616 0.810126582"></polygon>
    </defs>
    <g id="Symbols" stroke="none" stroke-width="1" fill="none" fill-rule="evenodd">
        <g id="Component/Navigation/Top-Bar" transform="translate(-154.000000, -19.000000)">
            <g id="Group-3" transform="translate(154.000000, 19.000000)">
                <g id="aays" transform="translate(42.000000, 1.000000)" fill="#FFFFFF" font-family="Nunito-SemiBold, Nunito SemiBold" font-size="18" font-weight="500">
                    <g id="text2084">
                        <text id="Aays">
                            <tspan x="0.593832329" y="18.9411523">Aays</tspan>
                        </text>
                    </g>
                </g>
                <g id="Group-131">
                    <path d="M17.1354329,7.13504135 C17.1354329,7.77234093 16.6188422,8.28893165 15.9815426,8.28893165 C15.344243,8.28893165 14.8276523,7.77234093 14.8276523,7.13504135 C14.8276523,6.49774177 15.344243,5.98115105 15.9815426,5.98115105 C16.6188422,5.98115105 17.1354329,6.49774177 17.1354329,7.13504135" id="Fill-1" fill="#FFFFFF"></path>
                    <path d="M20.4330262,8.25001857 C20.1891781,8.83884557 19.5142076,9.11847426 18.9253806,8.87449114 C18.3366886,8.63064304 18.0570599,7.95567257 18.300908,7.36684557 C18.5447561,6.77815359 19.2197266,6.49852489 19.8085536,6.742373 C20.3972456,6.98635612 20.6768743,7.66132658 20.4330262,8.25001857" id="Fill-3" fill="#FFFFFF"></path>
                    <path d="M23.0528945,10.5420827 C22.6023291,10.9926481 21.87173,10.9926481 21.4211646,10.5420827 C20.9704641,10.0915173 20.9704641,9.36078312 21.4210295,8.91021772 C21.8715949,8.45965232 22.6023291,8.45965232 23.0528945,8.91021772 C23.5034599,9.36078312 23.5034599,10.0915173 23.0528945,10.5420827" id="Fill-5" fill="#FFFFFF"></path>
                    <path d="M24.5961992,13.6622042 C24.0075072,13.9060523 23.3325367,13.6264236 23.0885536,13.0377316 C22.8447055,12.4490397 23.1243342,11.7739342 23.7130262,11.5300861 C24.3018532,11.286238 24.9768236,11.5658667 25.2206717,12.1545586 C25.4646549,12.7433857 25.1850262,13.4183561 24.5961992,13.6622042" id="Fill-7" fill="#FFFFFF"></path>
                    <path d="M24.8280709,17.1354464 C24.1907713,17.1354464 23.6741806,16.6188557 23.6741806,15.9815561 C23.6741806,15.3442565 24.1907713,14.8276658 24.8280709,14.8276658 C25.4653705,14.8276658 25.9819612,15.3442565 25.9819612,15.9815561 C25.9819612,16.6188557 25.4653705,17.1354464 24.8280709,17.1354464" id="Fill-9" fill="#FFFFFF"></path>
                    <path d="M23.7130937,20.4330397 C23.1242667,20.1890565 22.844773,19.5140861 23.0886211,18.9253941 C23.3324692,18.3367021 24.0074397,18.0570734 24.5962667,18.3009215 C25.1849586,18.5449046 25.4645873,19.2198751 25.2207392,19.8085671 C24.9767561,20.3972591 24.3017857,20.6770228 23.7130937,20.4330397" id="Fill-11" fill="#FFFFFF"></path>
                    <path d="M21.4210295,23.0528945 C20.9704641,22.6023291 20.9704641,21.87173 21.4210295,21.4210295 C21.87173,20.9704641 22.6023291,20.9704641 23.0528945,21.4210295 C23.5034599,21.87173 23.5034599,22.6023291 23.0528945,23.0528945 C22.6023291,23.5035949 21.8715949,23.5035949 21.4210295,23.0528945" id="Fill-13" fill="#FFFFFF"></path>
                    <path d="M18.300908,24.5962802 C18.0570599,24.0074532 18.3366886,23.3324827 18.9253806,23.0886346 C19.5142076,22.8446515 20.1891781,23.1244152 20.4330262,23.7131072 C20.6768743,24.3017992 20.3972456,24.9767696 19.8085536,25.2207527 C19.2197266,25.4646008 18.5447561,25.1849722 18.300908,24.5962802" id="Fill-15" fill="#FFFFFF"></path>
                    <path d="M14.8276793,24.8280844 C14.8276793,24.1907848 15.34427,23.6741941 15.9815696,23.6741941 C16.6188692,23.6741941 17.1354599,24.1907848 17.1354599,24.8280844 C17.1354599,25.465384 16.6188692,25.9819747 15.9815696,25.9819747 C15.34427,25.9819747 14.8276793,25.465384 14.8276793,24.8280844" id="Fill-17" fill="#FFFFFF"></path>
                    <path d="M11.5301401,23.7131072 C11.7739882,23.1244152 12.4489586,22.8446515 13.0377857,23.0886346 C13.6264776,23.3324827 13.9061063,24.0074532 13.6622582,24.5962802 C13.4182751,25.1849722 12.7433046,25.4646008 12.1546127,25.2207527 C11.5657857,24.9767696 11.286157,24.3017992 11.5301401,23.7131072" id="Fill-19" fill="#FFFFFF"></path>
                    <path d="M8.91021772,21.421043 C9.36078312,20.9704776 10.0915173,20.9704776 10.5420827,21.421043 C10.9926481,21.8717435 10.9926481,22.6023426 10.5420827,23.052908 C10.0915173,23.5036084 9.36078312,23.5036084 8.91021772,23.052908 C8.45965232,22.6022076 8.45965232,21.8717435 8.91021772,21.421043" id="Fill-21" fill="#FFFFFF"></path>
                    <path d="M7.36691308,18.3009215 C7.95560506,18.0569384 8.63071055,18.3367021 8.87455865,18.9253941 C9.11840675,19.5140861 8.83877806,20.1890565 8.25008608,20.4330397 C7.66125907,20.6768878 6.98628861,20.3972591 6.74244051,19.8085671 C6.49859241,19.2198751 6.7782211,18.5447696 7.36691308,18.3009215" id="Fill-23" fill="#FFFFFF"></path>
                    <path d="M7.13510886,14.8276928 C7.77240844,14.8276928 8.28899916,15.3442835 8.28899916,15.9815831 C8.28899916,16.6188827 7.77240844,17.1354734 7.13510886,17.1354734 C6.49780928,17.1354734 5.98121857,16.6188827 5.98121857,15.9815831 C5.98121857,15.3442835 6.49780928,14.8276928 7.13510886,14.8276928" id="Fill-25" fill="#FFFFFF"></path>
                    <path d="M8.25008608,11.5300861 C8.83877806,11.7739342 9.11840675,12.4490397 8.87455865,13.0377316 C8.63071055,13.6264236 7.95560506,13.9060523 7.36691308,13.6622042 C6.7782211,13.4183561 6.49859241,12.7433857 6.74244051,12.1545586 C6.98628861,11.5658667 7.66125907,11.286238 8.25008608,11.5300861" id="Fill-27" fill="#FFFFFF"></path>
                    <path d="M10.5420827,8.91023122 C10.9926481,9.36079662 10.9926481,10.0915308 10.5420827,10.5420962 C10.0915173,10.9926616 9.36078312,10.9926616 8.91021772,10.5420962 C8.45965232,10.0915308 8.45965232,9.36079662 8.91021772,8.91023122 C9.36078312,8.45966582 10.0915173,8.45966582 10.5420827,8.91023122" id="Fill-29" fill="#FFFFFF"></path>
                    <path d="M13.6622042,7.36691308 C13.9061873,7.95560506 13.6265586,8.63057553 13.0377316,8.87455865 C12.4490397,9.11840675 11.7740692,8.83877806 11.5300861,8.25008608 C11.286238,7.66125907 11.5658667,6.98628861 12.1545586,6.74244051 C12.7433857,6.49859241 13.4183561,6.7782211 13.6622042,7.36691308" id="Fill-31" fill="#FFFFFF"></path>
                    <path d="M19.0234194,5.05170633 C18.9382211,5.46244051 18.5361283,5.72654177 18.1252591,5.64134346 C17.7143899,5.55614515 17.4504236,5.15405232 17.5356219,4.74318312 C17.6208203,4.33231392 18.0229131,4.06834768 18.4336473,4.15354599 L18.4337823,4.15354599 C18.8445165,4.2387443 19.1086177,4.64083713 19.0234194,5.05170633" id="Fill-33" fill="#FFFFFF"></path>
                    <path d="M22.9745013,7.04775021 C22.7386194,7.39475443 22.2660456,7.48467848 21.9191764,7.24879662 C21.5721722,7.01291477 21.4821131,6.54034093 21.7179949,6.19333671 C21.9538768,5.84646751 22.4264506,5.75640844 22.7734549,5.9922903 C23.1204591,6.22817215 23.2105181,6.70074599 22.9745013,7.04775021 Z" id="Fill-35" fill="#FFFFFF"></path>
                    <path d="M25.8610363,10.4039021 C25.5102515,10.6342481 25.0392979,10.5364928 24.8089519,10.185708 C24.5787409,9.83505823 24.6763612,9.36396962 25.027146,9.13375865 C25.3777958,8.90341266 25.8488844,9.00103291 26.0790954,9.35181772 L26.0792304,9.35181772 C26.3094414,9.70260253 26.2118211,10.1735561 25.8610363,10.4039021" id="Fill-37" fill="#FFFFFF"></path>
                    <path d="M27.2435578,14.6092017 C26.8313384,14.687784 26.4335662,14.4172017 26.354984,14.0051173 C26.2765367,13.5928979 26.546984,13.1951257 26.9592034,13.1165435 C27.3712878,13.0380962 27.7690599,13.3085435 27.8476422,13.7206278 C27.9262245,14.1328473 27.6556422,14.5306194 27.2435578,14.6092017" id="Fill-39" fill="#FFFFFF"></path>
                    <path d="M26.9114734,19.0233654 C26.5006042,18.9381671 26.236638,18.5362093 26.3218363,18.1253401 C26.4070346,17.7144709 26.8091274,17.4505046 27.2198616,17.5355679 C27.6307308,17.6207662 27.894697,18.0228591 27.8094987,18.4337283 C27.7244354,18.8445975 27.3223426,19.1085637 26.9114734,19.0233654" id="Fill-41" fill="#FFFFFF"></path>
                    <path d="M24.9154295,22.9745823 C24.5684253,22.7387004 24.4783662,22.2661266 24.7143831,21.9191224 C24.950265,21.5721181 25.4227038,21.4820591 25.769708,21.7179409 C26.1167122,21.9539578 26.2067713,22.4263966 25.9707544,22.7735359 C25.7348726,23.1204051 25.2624338,23.2104641 24.9154295,22.9745823" id="Fill-43" fill="#FFFFFF"></path>
                    <path d="M21.5592776,25.8610498 C21.3289316,25.510265 21.4266869,25.0393114 21.7773367,24.8091004 C22.1281215,24.5787544 22.5990751,24.6765097 22.8294211,25.0271595 C23.0596321,25.3779443 22.9620118,25.8488979 22.611362,26.0791089 C22.2605772,26.3094549 21.7896236,26.2118346 21.5592776,25.8610498" id="Fill-45" fill="#FFFFFF"></path>
                    <path d="M17.3539781,27.2435578 C17.2753958,26.8313384 17.545843,26.4335662 17.9580624,26.354984 C18.3702819,26.2765367 18.768054,26.546984 18.8465013,26.9592034 C18.9250835,27.3712878 18.6546363,27.7691949 18.2425519,27.8476422 L18.2424169,27.8476422 C17.8303325,27.9262245 17.4325603,27.6557772 17.3539781,27.2435578" id="Fill-47" fill="#FFFFFF"></path>
                    <path d="M12.9397603,26.9114194 C13.0249586,26.5006852 13.4270515,26.236584 13.8377857,26.3217823 C14.2486549,26.4069806 14.5127561,26.8090734 14.4275578,27.2199426 C14.3423595,27.6306768 13.9402667,27.8947781 13.5293975,27.8095797 C13.1185283,27.7243814 12.854562,27.3222886 12.9397603,26.9114194" id="Fill-49" fill="#FFFFFF"></path>
                    <path d="M8.98861097,24.9153755 C9.22449283,24.5685063 9.69706667,24.4784473 10.0439359,24.7143291 C10.3909401,24.950211 10.4809992,25.4227848 10.2451173,25.769789 C10.0092354,26.1166582 9.5366616,26.2067173 9.18965738,25.9708354 C8.84265316,25.7348186 8.75259409,25.2623797 8.98861097,24.9153755" id="Fill-51" fill="#FFFFFF"></path>
                    <path d="M6.10207595,21.5592236 C6.45286076,21.3290127 6.92381435,21.4267679 7.15416034,21.7772827 C7.38437131,22.1280675 7.28675105,22.5991561 6.93596624,22.8293671 C6.58531646,23.0597131 6.11422785,22.9620928 5.88401688,22.611308 C5.65367089,22.2605232 5.75129114,21.7895696 6.10207595,21.5592236" id="Fill-53" fill="#FFFFFF"></path>
                    <path d="M4.71962194,17.3539241 C5.13184135,17.2754768 5.5296135,17.5459241 5.60819578,17.9581435 C5.68664304,18.3702278 5.41619578,18.768135 5.00397637,18.8465823 C4.59189198,18.9251646 4.19398481,18.6545823 4.11553755,18.2424979 C4.03695527,17.8302785 4.30740253,17.4325063 4.71962194,17.3539241" id="Fill-55" fill="#FFFFFF"></path>
                    <path d="M5.05170633,12.9397603 C5.46244051,13.0249586 5.72654177,13.4270515 5.64134346,13.8377857 C5.55614515,14.2486549 5.15405232,14.5127561 4.74318312,14.4275578 C4.33244895,14.3423595 4.06834768,13.9402667 4.15354599,13.5293975 C4.2387443,13.1185283 4.64083713,12.854562 5.05170633,12.9397603" id="Fill-57" fill="#FFFFFF"></path>
                    <path d="M7.04775021,8.98862447 C7.39475443,9.22450633 7.48467848,9.69708017 7.24879662,10.0439494 C7.01291477,10.3909536 6.54047595,10.4810127 6.19347173,10.2451308 C5.84646751,10.0092489 5.75640844,9.53667511 5.9922903,9.18967089 C6.22830717,8.84266667 6.70074599,8.75260759 7.04775021,8.98862447" id="Fill-59" fill="#FFFFFF"></path>
                    <path d="M10.4038886,6.10207595 C10.6342346,6.45286076 10.5364793,6.92381435 10.1858295,7.15416034 C9.83504473,7.38437131 9.36395612,7.28675105 9.13374515,6.93596624 C8.90339916,6.58531646 9.00115443,6.11422785 9.35180422,5.88401688 C9.70258903,5.65367089 10.1735426,5.75129114 10.4038886,6.10207595" id="Fill-61" fill="#FFFFFF"></path>
                    <path d="M14.6091882,4.71963544 C14.6877705,5.13185485 14.4171882,5.529627 14.0051038,5.60807426 C13.5928844,5.68665654 13.1951122,5.41620928 13.11653,5.00398987 C13.0380827,4.59190549 13.30853,4.19399831 13.7206143,4.11555105 C14.1328338,4.03696878 14.5306059,4.30741603 14.6091882,4.71963544" id="Fill-63" fill="#FFFFFF"></path>
                    <path d="M16.4384405,1.91445063 C16.7246852,1.92376709 16.9490903,2.16329451 16.9397738,2.44953924 C16.9305924,2.73578397 16.69093,2.96032405 16.4046852,2.95100759 C16.1184405,2.94169114 15.8940354,2.70202869 15.9033519,2.41578397 C15.9125333,2.12967426 16.1521958,1.90513418 16.4384405,1.91445063" id="Fill-65" fill="#FFFFFF"></path>
                    <path d="M21.7869367,3.16003376 C22.0477975,3.27817722 22.1635105,3.58535021 22.0453671,3.84634599 C21.9273586,4.10720675 21.6200506,4.22291983 21.3591899,4.10477637 C21.0981941,3.98676793 20.982481,3.67945992 21.1006245,3.41859916 C21.2187679,3.15760338 21.5259409,3.0418903 21.7869367,3.16003376" id="Fill-67" fill="#FFFFFF"></path>
                    <path d="M26.2515983,6.35768439 C26.4473789,6.56656203 26.4368473,6.89479831 26.2278346,7.0905789 C26.0188219,7.28635949 25.6907207,7.27582785 25.4949401,7.06681519 C25.2990245,6.85780253 25.3096911,6.52970127 25.5187038,6.33392068 C25.7275814,6.13814008 26.0558177,6.14867173 26.2515983,6.35768439" id="Fill-69" fill="#FFFFFF"></path>
                    <path d="M29.1527696,11.0203949 C29.2537654,11.2884118 29.1183392,11.5874835 28.8503224,11.6884793 C28.5823055,11.7893401 28.2832338,11.6539139 28.182238,11.3860321 C28.0812422,11.1180152 28.2166684,10.8189435 28.4846852,10.7179477 C28.7527021,10.6169519 29.0517738,10.7523781 29.1527696,11.0203949" id="Fill-71" fill="#FFFFFF"></path>
                    <path d="M30.0487291,16.4384405 C30.0394127,16.7246852 29.7998852,16.9492253 29.5136405,16.9399089 C29.2273958,16.9307274 29.0028557,16.691065 29.0121722,16.4048203 C29.0214886,16.1185755 29.2611511,15.8940354 29.5472608,15.9033519 C29.8335055,15.9126684 30.0580456,16.1521958 30.0487291,16.4384405" id="Fill-73" fill="#FFFFFF"></path>
                    <path d="M28.803092,21.7869502 C28.6849485,22.047946 28.3777755,22.1635241 28.1167797,22.0455156 C27.855919,21.9273722 27.7402059,21.6200641 27.8583494,21.3592034 C27.9764928,21.0982076 28.2836658,20.9826295 28.5445266,21.100773 C28.8055224,21.2187814 28.9212354,21.5260895 28.803092,21.7869502" id="Fill-75" fill="#FFFFFF"></path>
                    <path d="M25.6054954,26.2517333 C25.3964827,26.4475139 25.0683814,26.4368473 24.8726008,26.2278346 C24.6766852,26.0188219 24.6873519,25.6908557 24.8963646,25.4949401 C25.1052422,25.2990245 25.4334785,25.3096911 25.6292591,25.5187038 C25.8250397,25.7277165 25.814373,26.0558177 25.6054954,26.2517333" id="Fill-77" fill="#FFFFFF"></path>
                    <path d="M20.9427173,29.1528506 C20.6747004,29.2538464 20.3756287,29.1182852 20.2746329,28.8504034 C20.1737722,28.5822515 20.3091983,28.2833148 20.5770802,28.182454 C20.845097,28.0813232 21.1443038,28.2167494 21.2451646,28.4849013 C21.3461603,28.7527831 21.2107342,29.0518549 20.9427173,29.1528506" id="Fill-79" fill="#FFFFFF"></path>
                    <path d="M15.5246717,30.0488101 C15.238427,30.0394937 15.0138869,29.7998312 15.0232034,29.5137215 C15.0325198,29.2274768 15.2720473,29.0029367 15.558292,29.0122532 C15.8445367,29.0215696 16.0690768,29.261097 16.0597603,29.5473418 C16.0504439,29.8335865 15.8109165,30.0579916 15.5246717,30.0488101" id="Fill-81" fill="#FFFFFF"></path>
                    <path d="M10.1761755,28.8031595 C9.91531477,28.685016 9.79960169,28.377843 9.91761013,28.1168473 C10.0357536,27.8559865 10.3430616,27.7402734 10.6039224,27.8584169 C10.8647831,27.9765603 10.9806312,28.2837333 10.8624878,28.5447291 C10.7443443,28.8055899 10.4370363,28.921303 10.1761755,28.8031595" id="Fill-83" fill="#FFFFFF"></path>
                    <path d="M5.71144641,25.6055089 C5.51566582,25.3966312 5.52633249,25.0683949 5.73534515,24.8726143 C5.94422278,24.6768338 6.27245907,24.6873654 6.46823966,24.8963781 C6.66402025,25.1053907 6.65335359,25.433627 6.44447595,25.6294076 C6.23546329,25.8251882 5.90736203,25.8145215 5.71144641,25.6055089" id="Fill-85" fill="#FFFFFF"></path>
                    <path d="M2.81027511,20.9427983 C2.70927932,20.6747814 2.84470549,20.3757097 3.11272236,20.2748489 C3.38073924,20.1738532 3.67981097,20.3092793 3.78080675,20.5772962 C3.88180253,20.8451781 3.74637637,21.1442498 3.47835949,21.2452456 C3.21034262,21.3462414 2.91127089,21.2106802 2.81027511,20.9427983" id="Fill-87" fill="#FFFFFF"></path>
                    <path d="M1.91430211,15.5247527 C1.92361857,15.238508 2.16314599,15.0139679 2.44939072,15.0232844 C2.73563544,15.0326008 2.96017553,15.2721283 2.95085907,15.558373 C2.94154262,15.8446177 2.70201519,16.0691578 2.41577046,16.0598414 C2.12952574,16.0505249 1.90498565,15.8109975 1.91430211,15.5247527" id="Fill-89" fill="#FFFFFF"></path>
                    <path d="M3.15995274,10.1762565 C3.2780962,9.91539578 3.5852692,9.79954768 3.84626498,9.91769114 C4.10712574,10.0358346 4.22283882,10.3431426 4.10469536,10.6040034 C3.98668692,10.8648641 3.6793789,10.9807122 3.41851814,10.8625688 C3.15752236,10.7444253 3.04180928,10.4371173 3.15995274,10.1762565" id="Fill-91" fill="#FFFFFF"></path>
                    <path d="M6.35761688,5.71152743 C6.56649451,5.51574684 6.8947308,5.5264135 7.09051139,5.73529114 C7.28629198,5.9443038 7.27562532,6.27240506 7.06674768,6.46832068 C6.85773502,6.66410127 6.52963376,6.6534346 6.33385316,6.44455696 C6.13793755,6.2355443 6.14860422,5.90744304 6.35761688,5.71152743" id="Fill-93" fill="#FFFFFF"></path>
                    <path d="M11.0203274,2.81034262 C11.2883443,2.70934684 11.587416,2.84490802 11.6884118,3.11278987 C11.7892726,3.38080675 11.6538464,3.67987848 11.3859646,3.78087426 C11.1179477,3.88187004 10.8188759,3.74644388 10.7178802,3.478427 C10.6168844,3.21041013 10.7523105,2.9113384 11.0203274,2.81034262" id="Fill-95" fill="#FFFFFF"></path>
                    <path d="M19.4367865,0.121262447 C19.6482295,0.167304641 19.7824405,0.376182278 19.7363983,0.587625316 C19.6902211,0.799203376 19.4814785,0.933279325 19.2699004,0.887237131 C19.0584574,0.841194937 18.9242464,0.6323173 18.9702886,0.420739241 C19.0164658,0.209296203 19.2253435,0.0752202532 19.4367865,0.121262447" id="Fill-97" fill="#FFFFFF"></path>
                    <path d="M25.2432878,2.65080169 C25.4209755,2.77434599 25.4649924,3.01859916 25.3415831,3.19642194 C25.2180388,3.3741097 24.9737857,3.41812658 24.7959629,3.29458228 C24.6181401,3.171173 24.5741232,2.92678481 24.6976675,2.74909705 C24.8212118,2.57127426 25.065465,2.52725738 25.2432878,2.65080169" id="Fill-99" fill="#FFFFFF"></path>
                    <path d="M29.6397097,7.20980253 C29.756773,7.39194599 29.7038447,7.63444388 29.5217013,7.75150717 C29.3395578,7.86843544 29.0970599,7.81564219 28.9801316,7.63349873 C28.8632034,7.45135527 28.9159966,7.20885738 29.0981401,7.09179409 C29.2802835,6.97486582 29.5227814,7.02765907 29.6397097,7.20980253" id="Fill-101" fill="#FFFFFF"></path>
                    <g id="Group-105" transform="translate(31.054852, 12.655122)">
                        <mask id="mask-2" fill="white">
                            <use xlink:href="#path-1"></use>
                        </mask>
                        <g id="Clip-104"></g>
                        <path d="M0.902048945,0.449201688 C0.940394937,0.662264979 0.798757806,0.866011814 0.585694515,0.904492827 C0.372631224,0.942838819 0.168884388,0.801201688 0.130538397,0.588138397 C0.092057384,0.375075105 0.233694515,0.171193249 0.446757806,0.132847257 C0.659821097,0.0945012658 0.863702954,0.236138397 0.902048945,0.449201688" id="Fill-103" fill="#FFFFFF" mask="url(#mask-2)"></path>
                    </g>
                    <path d="M31.8419173,19.4367325 C31.7957401,19.6483105 31.5869975,19.7825215 31.3754194,19.7363443 C31.1639764,19.6903021 31.0297654,19.4814245 31.0759426,19.2699814 C31.1219848,19.0584034 31.3308624,18.9243274 31.5423055,18.9703696 C31.7538835,19.0165468 31.8879595,19.2252895 31.8419173,19.4367325" id="Fill-106" fill="#FFFFFF"></path>
                    <path d="M29.3123105,25.2433013 C29.1887662,25.420989 28.9445131,25.4651409 28.7666903,25.3415966 C28.5890025,25.2180523 28.5449857,24.9737992 28.66853,24.7959764 C28.7919392,24.6181536 29.0363274,24.5741367 29.2140152,24.697681 C29.391838,24.8212253 29.4358549,25.0654785 29.3123105,25.2433013" id="Fill-108" fill="#FFFFFF"></path>
                    <path d="M24.7533097,29.6397907 C24.5711662,29.756719 24.3286684,29.7039257 24.2116051,29.5217823 C24.0946768,29.3395038 24.14747,29.0970059 24.3296135,28.9800776 C24.511757,28.8631494 24.7542549,28.9160776 24.8713181,29.0980861 C24.9882464,29.2802295 24.9354532,29.5227274 24.7533097,29.6397907" id="Fill-110" fill="#FFFFFF"></path>
                    <g id="Group-114" transform="translate(18.362869, 31.153013)">
                        <mask id="mask-4" fill="white">
                            <use xlink:href="#path-3"></use>
                        </mask>
                        <g id="Clip-113"></g>
                        <path d="M0.495986498,0.803888608 C0.282923207,0.842234599 0.0791763713,0.700597468 0.0406953586,0.487534177 C0.00234936709,0.274470886 0.143986498,0.0705890295 0.357049789,0.032243038 C0.57011308,-0.00610295359 0.773859916,0.135534177 0.812205907,0.348597468 C0.850551899,0.561660759 0.709049789,0.765542616 0.495986498,0.803888608" id="Fill-112" fill="#FFFFFF" mask="url(#mask-4)"></path>
                    </g>
                    <path d="M12.5263257,31.8419308 C12.3148827,31.7957536 12.1806717,31.587011 12.2268489,31.3754329 C12.2728911,31.1639899 12.4816338,31.0297789 12.6932118,31.0759561 C12.9047899,31.1219983 13.0388658,31.3308759 12.9928236,31.542319 C12.9466464,31.753897 12.7379038,31.887973 12.5263257,31.8419308" id="Fill-115" fill="#FFFFFF"></path>
                    <path d="M6.71989198,29.3123916 C6.5420692,29.1888473 6.49805232,28.9444591 6.62159662,28.7667713 C6.74514093,28.5890835 6.98939409,28.5449316 7.16721688,28.6684759 C7.34490464,28.7920203 7.38892152,29.0362734 7.26551224,29.2139612 C7.14183291,29.391919 6.89771477,29.4358008 6.71989198,29.3123916" id="Fill-117" fill="#FFFFFF"></path>
                    <path d="M2.32345654,24.7533232 C2.20639325,24.5711797 2.25932152,24.3286819 2.44146498,24.2116186 C2.62360844,24.0946903 2.86610633,24.1476186 2.9830346,24.329627 C3.09996287,24.5119055 3.04716962,24.7544034 2.86502616,24.8713316 C2.6828827,24.9882599 2.44038481,24.9354667 2.32345654,24.7533232" id="Fill-119" fill="#FFFFFF"></path>
                    <path d="M0.00627848101,18.8588017 C-0.0320675105,18.6457384 0.10956962,18.4419916 0.32249789,18.4036456 C0.535561181,18.3652996 0.739443038,18.5069367 0.77778903,18.719865 C0.816135021,18.9329283 0.67449789,19.1368101 0.46156962,19.1751561 C0.248371308,19.2135021 0.0446244726,19.071865 0.00627848101,18.8588017" id="Fill-121" fill="#FFFFFF"></path>
                    <path d="M0.121262447,12.5263257 C0.167304641,12.3148827 0.376182278,12.1806717 0.587625316,12.2267139 C0.799203376,12.2728911 0.933279325,12.4816338 0.887237131,12.6932118 C0.841194937,12.9046549 0.6323173,13.0387308 0.420739241,12.9928236 C0.209296203,12.9466464 0.0752202532,12.7377688 0.121262447,12.5263257" id="Fill-123" fill="#FFFFFF"></path>
                    <path d="M2.65078819,6.71989198 C2.77433249,6.5420692 3.01858565,6.49805232 3.19640844,6.62159662 C3.3740962,6.74514093 3.41811308,6.98939409 3.29456878,7.16721688 C3.17115949,7.34490464 2.92677131,7.38892152 2.74908354,7.26551224 C2.57126076,7.14183291 2.52724388,6.89757975 2.65078819,6.71989198" id="Fill-125" fill="#FFFFFF"></path>
                    <path d="M7.20987004,2.32340253 C7.3920135,2.20647426 7.63451139,2.25926751 7.75143966,2.44141097 C7.86836793,2.62355443 7.81557468,2.86605232 7.63343122,2.98298059 C7.45142278,3.09990886 7.20878987,3.04711561 7.0918616,2.86497215 C6.97493333,2.68296371 7.02772658,2.4403308 7.20987004,2.32340253" id="Fill-127" fill="#FFFFFF"></path>
                    <path d="M13.1043105,0.00629198312 C13.3173738,-0.0320540084 13.5211207,0.109583122 13.5596017,0.322511392 C13.5979477,0.535574684 13.4563105,0.73945654 13.2432473,0.777802532 C13.030184,0.816148523 12.8264371,0.674511392 12.7880911,0.461583122 C12.7496101,0.24838481 12.8912473,0.0446379747 13.1043105,0.00629198312" id="Fill-129" fill="#FFFFFF"></path>
                </g>
            </g>
        </g>
    </g>
</svg>