<?xml version="1.0" encoding="UTF-8"?>
<svg width="19px" height="15px" viewBox="0 0 19 15" version="1.1" xmlns="http://www.w3.org/2000/svg" xmlns:xlink="http://www.w3.org/1999/xlink">
    <!-- Generator: Sketch 51.3 (57544) - http://www.bohemiancoding.com/sketch -->
    <title>Element/Icon/Mail</title>
    <desc>Created with Sketch.</desc>
    <defs>
        <path d="M3.96428612,17.4678634 L3.96428612,6.89905657 L11.1949478,12.7353307 L18.4196109,6.89905657 L18.4196109,17.4678634 L3.96428612,17.4678634 Z M15.75,6.40262567 L11.2001743,9.98548282 L6.58928571,6.40262567 L15.75,6.40262567 Z M18.8693182,4.5 L3.91193182,4.5 C2.99537642,4.5 2.25,5.2288125 2.25,6.125 L2.25,17.5 C2.25,18.3961875 2.99537642,19.125 3.91193182,19.125 L18.8693182,19.125 C19.7858736,19.125 20.53125,18.3961875 20.53125,17.5 L20.53125,6.125 C20.53125,5.2288125 19.7858736,4.5 18.8693182,4.5 L18.8693182,4.5 Z" id="path-1"></path>
    </defs>
    <g id="Symbols" stroke="none" stroke-width="1" fill="none" fill-rule="evenodd">
        <g id="Component/Navigation/Top-Bar" transform="translate(-1242.000000, -29.000000)">
            <g id="Group-2">
                <g id="Group" transform="translate(1193.153846, 15.250000)">
                    <g id="icon-messages" transform="translate(46.846154, 7.000000)">
                        <g id="icon-Chat" transform="translate(0.000000, 2.485714)">
                            <mask id="mask-2" fill="white">
                                <use xlink:href="#path-1"></use>
                            </mask>
                            <use id="Mail" fill="#BFC5D2" fill-rule="evenodd" xlink:href="#path-1"></use>
                        </g>
                    </g>
                </g>
            </g>
        </g>
    </g>
</svg>