<?xml version="1.0" encoding="UTF-8"?>
<svg width="16px" height="16px" viewBox="0 0 16 16" version="1.1" xmlns="http://www.w3.org/2000/svg" xmlns:xlink="http://www.w3.org/1999/xlink">
    <!-- Generator: Sketch 51.3 (57544) - http://www.bohemiancoding.com/sketch -->
    <title>Element/Icon/Message</title>
    <desc>Created with Sketch.</desc>
    <defs></defs>
    <g id="Element/Icon/Message" stroke="none" stroke-width="1" fill="none" fill-rule="evenodd">
        <path d="M3.43478261,8.30434783 L9.52173913,8.30434783 L9.52173913,7.08695652 L3.43478261,7.08695652 L3.43478261,8.30434783 Z M3.43478261,5.86956522 L11.9565217,5.86956522 L11.9565217,4.65217391 L3.43478261,4.65217391 L3.43478261,5.86956522 Z M13.173913,10.7391304 L10.1304348,10.7391304 L10.1304348,13.7211304 C8.74321739,13.4386957 7.69565217,12.2091304 7.69565217,10.7391304 L2.2173913,10.7391304 L2.2173913,2.2173913 L13.173913,2.2173913 L13.173913,10.7391304 Z M13.173913,1 L2.2173913,1 C1.546,1 1,1.546 1,2.2173913 L1,10.7391304 C1,11.4105217 1.546,11.9565217 2.2173913,11.9565217 L6.6553913,11.9565217 C7.18069565,13.7144348 8.8126087,15 10.7391304,15 L11.3478261,15 L11.3478261,11.9565217 L13.173913,11.9565217 C13.8453043,11.9565217 14.3913043,11.4105217 14.3913043,10.7391304 L14.3913043,2.2173913 C14.3913043,1.546 13.8453043,1 13.173913,1 L13.173913,1 Z" id="🎨-Icon-color" fill="#3B57BA"></path>
    </g>
</svg>