<?xml version="1.0" encoding="UTF-8"?>
<svg width="15px" height="14px" viewBox="0 0 15 14" version="1.1" xmlns="http://www.w3.org/2000/svg" xmlns:xlink="http://www.w3.org/1999/xlink">
    <!-- Generator: Sketch 51.3 (57544) - http://www.bohemiancoding.com/sketch -->
    <title>Icon</title>
    <desc>Created with Sketch.</desc>
    <defs>
        <path d="M4.09719073,11.780059 L4.09719073,13.1182613 C4.09719073,13.1957909 4.07080457,13.2710121 4.02237221,13.3315525 C3.90457472,13.4787994 3.68971381,13.5026728 3.54246694,13.3848753 L1.01613267,11.3638079 C0.996444062,11.348057 0.978560747,11.3301737 0.962809862,11.3104851 C0.845012368,11.1632382 0.868885802,10.9483773 1.01613267,10.8305798 L3.54246694,8.80951242 C3.60300739,8.76108006 3.67822857,8.73469389 3.75575817,8.73469389 C3.94432617,8.73469389 4.09719073,8.88755846 4.09719073,9.07612645 L4.09719073,10.4143287 L10.2429768,10.4143287 C12.1286568,10.4143287 13.6573024,8.8856831 13.6573024,7.00000314 C13.6573024,6.62286714 13.9630316,6.31713802 14.3401676,6.31713802 C14.7173036,6.31713802 15.0230327,6.62286714 15.0230327,7.00000314 C15.0230327,9.63995509 12.8829288,11.780059 10.2429768,11.780059 L4.09719073,11.780059 Z M1.36573024,7.00000314 C1.36573024,7.37713913 1.06000112,7.68286826 0.682865122,7.68286826 C0.305729129,7.68286826 0,7.37713913 0,7.00000314 C-3.03253033e-16,4.36005118 2.1401039,2.21994728 4.78005586,2.21994728 L11.6087071,2.21994728 C11.9858431,2.21994728 12.2915722,2.52567641 12.2915722,2.9028124 C12.2915722,3.2799484 11.9858431,3.58567753 11.6087071,3.58567753 L4.78005586,3.58567753 C2.89437589,3.58567753 1.36573024,5.11432317 1.36573024,7.00000314 Z M11.4805657,0.615130947 L14.0069,2.63619837 C14.1541469,2.75399586 14.1780203,2.96885677 14.0602228,3.11610363 C14.0444719,3.13579224 14.0265886,3.15367556 14.0069,3.16942644 L11.4805657,5.19049386 C11.3333189,5.30829135 11.118458,5.28441792 11.0006605,5.13717105 C10.9522281,5.0766306 10.925842,5.00140942 10.925842,4.92387982 L10.925842,0.881744985 C10.925842,0.693176988 11.0787065,0.540312424 11.2672745,0.540312424 C11.3448041,0.540312424 11.4200253,0.566698589 11.4805657,0.615130947 Z" id="path-1"></path>
    </defs>
    <g id="Page-1" stroke="none" stroke-width="1" fill="none" fill-rule="evenodd">
        <g id="5.2---datasourcesV2" transform="translate(-570.000000, -415.000000)">
            <g id="Group-3-Copy-10" transform="translate(446.000000, 229.000000)">
                <g id="Icons-/-Repeat" transform="translate(124.000000, 186.000000)">
                    <mask id="mask-2" fill="white">
                        <use xlink:href="#path-1"></use>
                    </mask>
                    <use id="Icon" fill="#BFC5D2" fill-rule="nonzero" xlink:href="#path-1"></use>
                </g>
            </g>
        </g>
    </g>
</svg>