<?xml version="1.0" encoding="UTF-8"?>
<svg width="40px" height="40px" viewBox="0 0 40 40" version="1.1" xmlns="http://www.w3.org/2000/svg" xmlns:xlink="http://www.w3.org/1999/xlink">
    <!-- Generator: Sketch 51.3 (57544) - http://www.bohemiancoding.com/sketch -->
    <title>Group 6</title>
    <desc>Created with Sketch.</desc>
    <defs>
        <path d="M23.1548179,15.1883254 L24.2942377,16.1243881 L17.1187671,22.019222 C16.8513213,22.2389356 16.8513213,22.5951617 17.1187671,22.8148753 L17.4633489,23.0979582 C17.7307947,23.3176718 18.16441,23.3176718 18.4318558,23.0979582 L25.6073263,17.2031242 C26.4096637,16.5439834 26.4096637,15.4753051 25.6073263,14.8161643 L24.8696032,14.2101058 C24.0672659,13.550965 22.7664201,13.550965 21.9640827,14.2101058 L14.4073762,20.4181348 C13.1488079,21.4520812 13.1488079,23.1284394 14.4073762,24.1623857 L15.7461945,25.2622594 C17.0047628,26.2962057 19.0453053,26.2962057 20.3038737,25.2622594 L27.8605802,19.0542303 L29,19.990293 L21.4432935,26.1983221 C19.5554409,27.7492416 16.4946272,27.7492416 14.6067747,26.1983221 L13.2679564,25.0984484 C11.3801039,23.5475289 11.3801039,21.0329916 13.2679564,19.4820721 L20.8246629,13.274043 C22.2562845,12.0979291 24.5774015,12.0979291 26.009023,13.274043 L26.7467461,13.8801016 C28.1783676,15.0562155 28.1783676,16.963073 26.7467461,18.1391869 L19.5712756,24.0340209 C18.6745456,24.7707076 17.2206591,24.7707076 16.3239291,24.0340209 L15.9793473,23.750938 C15.0826174,23.0142513 15.0826174,21.8198461 15.9793473,21.0831593 L23.1548179,15.1883254 Z" id="path-1"></path>
    </defs>
    <g id="Page-1" stroke="none" stroke-width="1" fill="none" fill-rule="evenodd">
        <g id="2-Landing-V2" transform="translate(-176.000000, -697.000000)">
            <g id="Group-2" transform="translate(154.000000, 114.000000)">
                <g id="Group-4" transform="translate(0.000000, 544.000000)">
                    <g id="Group-3">
                        <g id="Group-6" transform="translate(22.000000, 39.000000)">
                            <circle id="Oval" fill="#F1F3F8" cx="20" cy="20" r="20"></circle>
                            <mask id="mask-2" fill="white">
                                <use xlink:href="#path-1"></use>
                            </mask>
                            <use id="Shape" fill="#8C54FF" fill-rule="nonzero" xlink:href="#path-1"></use>
                        </g>
                    </g>
                </g>
            </g>
        </g>
    </g>
</svg>