<?xml version="1.0" encoding="UTF-8"?>
<svg width="22px" height="22px" viewBox="0 0 22 22" version="1.1" xmlns="http://www.w3.org/2000/svg" xmlns:xlink="http://www.w3.org/1999/xlink">
    <!-- Generator: Sketch 51.3 (57544) - http://www.bohemiancoding.com/sketch -->
    <title>Group 6</title>
    <desc>Created with Sketch.</desc>
    <defs>
        <path d="M11,18 C7.13400675,18 4,14.8659932 4,11 C4,7.13400675 7.13400675,4 11,4 C14.8659932,4 18,7.13400675 18,11 C18,14.8659932 14.8659932,18 11,18 Z M11,16 C13.7614237,16 16,13.7614237 16,11 C16,8.23857625 13.7614237,6 11,6 C8.23857625,6 6,8.23857625 6,11 C6,13.7614237 8.23857625,16 11,16 Z M10,0.998956561 C10,0.447248087 10.4438648,0 11,0 C11.5522847,0 12,0.442660332 12,0.998956561 L12,2.00104344 C12,2.55275191 11.5561352,3 11,3 C10.4477153,3 10,2.55733967 10,2.00104344 L10,0.998956561 Z M17.3646989,3.22108758 C17.7548157,2.83097078 18.3849276,2.82857845 18.7781746,3.22182541 C19.1686989,3.6123497 19.1722733,4.24194031 18.7789124,4.63530115 L18.07033,5.34388357 C17.6802132,5.73400038 17.0501012,5.73639271 16.6568542,5.34314575 C16.26633,4.95262146 16.2627556,4.32303085 16.6561164,3.92967001 L17.3646989,3.22108758 Z M21.0010434,10 C21.5527519,10 22,10.4438648 22,11 C22,11.5522847 21.5573397,12 21.0010434,12 L19.9989566,12 C19.4472481,12 19,11.5561352 19,11 C19,10.4477153 19.4426603,10 19.9989566,10 L21.0010434,10 Z M18.7789124,17.3646989 C19.1690292,17.7548157 19.1714215,18.3849276 18.7781746,18.7781746 C18.3876503,19.1686989 17.7580597,19.1722733 17.3646989,18.7789124 L16.6561164,18.07033 C16.2659996,17.6802132 16.2636073,17.0501012 16.6568542,16.6568542 C17.0473785,16.26633 17.6769692,16.2627556 18.07033,16.6561164 L18.7789124,17.3646989 Z M12,21.0010434 C12,21.5527519 11.5561352,22 11,22 C10.4477153,22 10,21.5573397 10,21.0010434 L10,19.9989566 C10,19.4472481 10.4438648,19 11,19 C11.5522847,19 12,19.4426603 12,19.9989566 L12,21.0010434 Z M4.63530115,18.7789124 C4.24518434,19.1690292 3.61507236,19.1714215 3.22182541,18.7781746 C2.83130112,18.3876503 2.82772675,17.7580597 3.22108758,17.3646989 L3.92967001,16.6561164 C4.31978681,16.2659996 4.9498988,16.2636073 5.34314575,16.6568542 C5.73367004,17.0473785 5.73724441,17.6769692 5.34388357,18.07033 L4.63530115,18.7789124 Z M0.998956561,12 C0.447248087,12 1.4050796e-16,11.5561352 3.83475851e-17,11 C-6.31054776e-17,10.4477153 0.442660332,10 0.998956561,10 L2.00104344,10 C2.55275191,10 3,10.4438648 3,11 C3,11.5522847 2.55733967,12 2.00104344,12 L0.998956561,12 Z M3.22108758,4.63530115 C2.83097078,4.24518434 2.82857845,3.61507236 3.22182541,3.22182541 C3.6123497,2.83130112 4.24194031,2.82772675 4.63530115,3.22108758 L5.34388357,3.92967001 C5.73400038,4.31978681 5.73639271,4.9498988 5.34314575,5.34314575 C4.95262146,5.73367004 4.32303085,5.73724441 3.92967001,5.34388357 L3.22108758,4.63530115 Z" id="path-1"></path>
    </defs>
    <g id="Symbols" stroke="none" stroke-width="1" fill="none" fill-rule="evenodd">
        <g id="Module/Notification-Panel" transform="translate(-94.000000, -39.000000)">
            <g id="Weater-">
                <g transform="translate(25.000000, 34.000000)">
                    <g id="Weather-Widget">
                        <g id="Group-6" transform="translate(69.000000, 5.000000)">
                            <mask id="mask-2" fill="white">
                                <use xlink:href="#path-1"></use>
                            </mask>
                            <use id="Combined-Shape" fill="#4A4A4A" fill-rule="nonzero" xlink:href="#path-1"></use>
                            <g id="Base/Color/Yellow" mask="url(#mask-2)" fill="#F7C137">
                                <g transform="translate(-15.000000, -17.000000)" id="Base/Color/Blue">
                                    <rect x="0" y="0" width="48" height="41"></rect>
                                </g>
                            </g>
                        </g>
                    </g>
                </g>
            </g>
        </g>
    </g>
</svg>